<?xml version="1.0" encoding="UTF-8" standalone="no"?>
<!-- Created with Inkscape (http://www.inkscape.org/) -->

<svg
   xmlns:dc="http://purl.org/dc/elements/1.1/"
   xmlns:cc="http://creativecommons.org/ns#"
   xmlns:rdf="http://www.w3.org/1999/02/22-rdf-syntax-ns#"
   xmlns:svg="http://www.w3.org/2000/svg"
   xmlns="http://www.w3.org/2000/svg"
   xmlns:xlink="http://www.w3.org/1999/xlink"
   xmlns:sodipodi="http://sodipodi.sourceforge.net/DTD/sodipodi-0.dtd"
   xmlns:inkscape="http://www.inkscape.org/namespaces/inkscape"
   width="685.82135"
   height="535.89929"
   id="svg4739"
   version="1.1"
   transform="rotate(180)"
   inkscape:version="0.48.3.1 r9886"
   sodipodi:docname="Új dokumentum 11">
  <title
     id="title4860">explosion</title>
  <defs
     id="defs4741">
    <linearGradient
       inkscape:collect="always"
       xlink:href="#linearGradient3058"
       id="linearGradient4260"
       gradientUnits="userSpaceOnUse"
       gradientTransform="translate(-211.44521,-356.4806)"
       x1="395.37158"
       y1="542.31287"
       x2="405.37253"
       y2="608.98596" />
    <linearGradient
       inkscape:collect="always"
       id="linearGradient3058">
      <stop
         style="stop-color:#be6041;stop-opacity:1"
         offset="0"
         id="stop3060" />
      <stop
         style="stop-color:#4d4d4d;stop-opacity:1"
         offset="1"
         id="stop3062" />
    </linearGradient>
    <linearGradient
       inkscape:collect="always"
       xlink:href="#linearGradient9003-3"
       id="linearGradient4262"
       gradientUnits="userSpaceOnUse"
       gradientTransform="translate(-211.44521,-356.4806)"
       x1="344.63004"
       y1="403.17535"
       x2="395.54666"
       y2="533.76703" />
    <linearGradient
       id="linearGradient9003-3"
       inkscape:collect="always">
      <stop
         id="stop9005-9"
         offset="0"
         style="stop-color:#e78542;stop-opacity:1" />
      <stop
         id="stop9007-7"
         offset="1"
         style="stop-color:#b85b41;stop-opacity:1" />
    </linearGradient>
    <linearGradient
       inkscape:collect="always"
       xlink:href="#linearGradient9003-3"
       id="linearGradient4264"
       gradientUnits="userSpaceOnUse"
       gradientTransform="translate(-211.44521,-356.4806)"
       x1="458.24954"
       y1="384.31732"
       x2="316.81445"
       y2="564.88275" />
    <linearGradient
       inkscape:collect="always"
       xlink:href="#linearGradient3050"
       id="linearGradient4266"
       gradientUnits="userSpaceOnUse"
       gradientTransform="translate(-211.44521,-356.4806)"
       x1="387.07159"
       y1="504.9324"
       x2="382.88651"
       y2="629.61115" />
    <linearGradient
       id="linearGradient3050"
       inkscape:collect="always">
      <stop
         id="stop3052"
         offset="0"
         style="stop-color:#b85b41;stop-opacity:1" />
      <stop
         id="stop3054"
         offset="1"
         style="stop-color:#1a1a1a;stop-opacity:1" />
    </linearGradient>
    <linearGradient
       inkscape:collect="always"
       xlink:href="#linearGradient3050"
       id="linearGradient4845"
       gradientUnits="userSpaceOnUse"
       gradientTransform="matrix(1.3795382,0,0,1.3795382,-227.56422,-104.00204)"
       x1="387.07159"
       y1="504.9324"
       x2="382.88651"
       y2="629.61115" />
    <linearGradient
       inkscape:collect="always"
       xlink:href="#linearGradient9003-3"
       id="linearGradient4848"
       gradientUnits="userSpaceOnUse"
       gradientTransform="matrix(1.3795382,0,0,1.3795382,-227.56422,-104.00204)"
       x1="458.24954"
       y1="384.31732"
       x2="316.81445"
       y2="564.88275" />
    <linearGradient
       inkscape:collect="always"
       xlink:href="#linearGradient9003-3"
       id="linearGradient4854"
       gradientUnits="userSpaceOnUse"
       gradientTransform="matrix(1.3795382,0,0,1.3795382,-227.56422,-104.00204)"
       x1="344.63004"
       y1="403.17535"
       x2="395.54666"
       y2="533.76703" />
    <linearGradient
       inkscape:collect="always"
       xlink:href="#linearGradient3058"
       id="linearGradient4857"
       gradientUnits="userSpaceOnUse"
       gradientTransform="matrix(1.3795382,0,0,1.3795382,-227.56422,-104.00204)"
       x1="395.37158"
       y1="542.31287"
       x2="405.37253"
       y2="608.98596" />
  </defs>
  <sodipodi:namedview
     id="base"
     pagecolor="#ffffff"
     bordercolor="#666666"
     borderopacity="1.0"
     inkscape:pageopacity="0.0"
     inkscape:pageshadow="2"
     inkscape:zoom="0.35"
     inkscape:cx="9.3392405"
     inkscape:cy="367.94963"
     inkscape:document-units="px"
     inkscape:current-layer="layer1"
     showgrid="false"
     fit-margin-top="0"
     fit-margin-left="0"
     fit-margin-right="0"
     fit-margin-bottom="0"
     inkscape:window-width="1440"
     inkscape:window-height="853"
     inkscape:window-x="0"
     inkscape:window-y="0"
     inkscape:window-maximized="1" />
  <metadata
     id="metadata4744">
    <rdf:RDF>
      <cc:Work
         rdf:about="">
        <dc:format>image/svg+xml</dc:format>
        <dc:type
           rdf:resource="http://purl.org/dc/dcmitype/StillImage" />
        <cc:license
           rdf:resource="http://creativecommons.org/licenses/publicdomain/" />
        <dc:title>explosion</dc:title>
        <dc:date>2012-10-17</dc:date>
        <dc:creator>
          <cc:Agent>
            <dc:title>tzunghaor (Prim András)</dc:title>
          </cc:Agent>
        </dc:creator>
        <dc:publisher>
          <cc:Agent>
            <dc:title>openclipart.org</dc:title>
          </cc:Agent>
        </dc:publisher>
        <dc:subject>
          <rdf:Bag>
            <rdf:li>explosion</rdf:li>
            <rdf:li>bomb</rdf:li>
            <rdf:li>weapon</rdf:li>
            <rdf:li>war</rdf:li>
          </rdf:Bag>
        </dc:subject>
      </cc:Work>
      <cc:License
         rdf:about="http://creativecommons.org/licenses/publicdomain/">
        <cc:permits
           rdf:resource="http://creativecommons.org/ns#Reproduction" />
        <cc:permits
           rdf:resource="http://creativecommons.org/ns#Distribution" />
        <cc:permits
           rdf:resource="http://creativecommons.org/ns#DerivativeWorks" />
      </cc:License>
    </rdf:RDF>
  </metadata>
  <g
     inkscape:label="1. réteg"
     inkscape:groupmode="layer"
     id="layer1"
     transform="translate(40.053526,-401.5554)">
    <path
       style="color:#000000;fill:#666666;fill-opacity:1;fill-rule:nonzero;stroke:none;stroke-width:10;marker:none;visibility:visible;display:inline;overflow:visible;enable-background:accumulate"
       d="m 237.72037,925.49751 c 0,0 -7.35825,-22.99452 -15.63628,-25.75387 -8.27803,-2.75934 -15.63628,-16.55606 -15.63628,-16.55606 0,0 16.55606,1.83956 19.31539,9.19781 2.75934,7.35825 19.3154,18.39563 19.3154,18.39563 0,0 -13.7967,-27.59344 -19.3154,-30.35278 -5.51869,-2.75935 11.03737,0.91978 11.03737,0.91978 l 51.50775,33.11212 81.86051,-5.51869 c 0,0 22.99453,-6.43846 30.35278,-14.71649 7.35825,-8.27803 26.67365,-11.95716 26.67365,-11.95716 0,0 3.67913,7.35825 -5.51869,10.11759 -9.19781,2.75935 -23.91431,11.95716 -26.67365,15.63628 -2.75934,3.67913 7.35825,1.83956 15.63628,-2.75934 8.27803,-4.59891 16.55606,-5.51869 21.15497,-5.51869 4.5989,0 7.35825,3.67913 0.91978,4.59891 -6.43847,0.91978 -29.433,10.11759 -34.95169,12.87693 -5.51868,2.75935 -20.23518,8.27803 -20.23518,8.27803 0,0 -102.0957,-8.27803 -107.61438,-8.27803 -5.51869,0 -32.19233,8.27803 -32.19233,8.27803 z"
       id="path3064"
       inkscape:connector-curvature="0" />
    <path
       style="color:#000000;fill:url(#linearGradient4857);fill-opacity:1;fill-rule:nonzero;stroke:none;stroke-width:1;marker:none;visibility:visible;display:inline;overflow:visible;enable-background:accumulate"
       d="m 207.22151,655.18042 c 0.59021,11.39392 -12.42636,24.48871 2.09032,34.14182 9.61407,5.13312 4.94302,12.64709 4.18063,19.50962 l 11.14835,99.6384 14.63221,85.00618 146.32213,16.02576 23.69024,-159.56079 c 1.08846,-9.67302 -6.62913,-17.8993 -1.39354,-28.56766 6.29417,-9.17772 -4.26777,-13.4848 2.09032,-29.96119 1.99855,-2.63045 4.41974,-6.64923 0,-11.14836 -2.78009,-5.05882 -6.02933,-10.06552 -0.69678,-16.02575 9.81859,-10.54039 0.46601,-15.32943 0.69678,-22.99348 z"
       id="path8391"
       inkscape:connector-curvature="0"
       sodipodi:nodetypes="ccccccccccccc" />
    <path
       style="color:#000000;fill:url(#linearGradient4854);fill-opacity:1;fill-rule:nonzero;stroke:none;stroke-width:1;marker:none;visibility:visible;display:inline;overflow:visible;enable-background:accumulate"
       d="m 235.0924,672.59971 c -5.57418,1.39355 -16.72254,-6.27094 -20.90316,-6.27094 -4.18064,0 -2.09032,-2.09032 -11.14835,0 -9.05804,2.09032 -13.23867,1.39354 -14.63223,-2.09032 -1.39354,-3.48385 2.09032,-15.32898 0,-15.32898 -2.0903,0 -8.36125,-5.57418 -12.54189,-4.8774 -4.18063,0.69676 -8.36126,-0.69678 -12.54189,-4.18064 -4.18064,-3.48386 -6.27095,-17.4193 -9.05803,-21.59994 -2.7871,-4.18062 -16.72253,-2.78708 -19.50963,-4.8774 -2.78708,-2.09031 -10.45157,-16.02575 -8.36125,-19.50961 2.09031,-3.48387 -2.7871,-2.78709 -3.48386,-6.96773 -0.69678,-4.18063 1.39354,-6.96771 2.0903,-9.75481 0.69678,-2.78708 -2.78708,-6.27094 -3.48386,-14.63221 -0.69676,-8.36125 2.09032,-19.5096 5.57418,-24.38702 3.48386,-4.8774 9.05803,-15.32897 4.87741,-16.72252 -4.18063,-1.39354 -11.14835,-11.84512 -6.96773,-18.81285 4.18064,-6.96772 16.02577,-19.50961 19.50962,-20.90315 3.48386,-1.39355 8.36127,1.39354 3.48386,-5.57417 -4.8774,-6.96773 -12.54189,-17.41931 -6.27095,-18.81285 6.27095,-1.39355 4.87741,-11.14835 13.23867,-14.63222 8.36127,-3.48386 8.36127,-4.18062 13.93545,-4.18062 5.57417,0 10.45157,7.66449 13.23866,6.27094 2.78709,-1.39355 7.6645,-9.7548 11.84513,-11.84512 4.18062,-2.09032 6.96772,-3.48387 9.7548,-1.39355 2.78709,2.09031 11.14835,2.09031 11.14835,2.09031 0,0 1.39356,-8.36125 4.87741,-9.75481 3.48386,-1.39354 2.78708,0 7.6645,0 4.8774,0 6.96771,-8.36125 11.84511,-8.36125 4.87741,0 5.57418,2.09031 11.84513,0.69677 6.27095,-1.39355 16.02575,-8.36127 20.20639,-7.66449 4.18063,0.69676 5.57417,9.05803 9.75481,9.05803 4.18063,0 18.11607,-4.87741 21.59992,-6.27095 3.48388,-1.39354 8.36127,-2.78708 13.23867,-2.09032 4.87742,0.69678 4.18064,6.27096 11.84513,2.7871 7.6645,-3.48386 10.45158,-1.39354 15.32899,-0.69678 4.8774,0.69678 2.78708,9.05803 11.84511,4.87741 9.05805,-4.18063 2.09032,-14.63222 16.02577,-14.63222 13.93543,0 18.81284,8.36127 18.81284,8.36127 0,0 -1.39354,3.48386 7.6645,2.78708 9.05803,-0.69676 11.84511,2.09032 11.84511,2.09032 0,0 6.96773,9.05803 13.23867,10.45159 6.27095,1.39354 14.63221,-2.7871 18.81285,-1.39356 4.18063,1.39356 12.54189,11.14837 12.54189,11.14837 0,0 4.87741,3.48386 0,9.05803 -4.8774,5.57418 -1.39354,4.8774 3.48387,7.6645 4.8774,2.78708 17.41929,3.48385 19.50961,9.75479 2.09032,6.27096 -1.39354,6.27096 0.69678,13.93545 2.09031,7.66449 13.93543,9.75481 15.32898,15.32899 1.39354,5.57417 -2.09031,14.63221 -2.78709,18.81284 -0.69678,4.18062 -6.96772,2.09032 -7.66449,5.57418 -0.69677,3.48386 -4.8774,6.96771 1.39354,10.45157 6.27095,3.48386 22.99348,0.69678 13.23867,8.36127 -9.7548,7.66448 -4.8774,11.84512 -3.48386,15.32897 1.39355,3.48388 5.57417,11.84513 6.27095,16.72253 0.69678,4.87741 -1.39354,4.18064 -4.8774,7.6645 -3.48387,3.48385 -3.48387,11.84512 -4.18063,16.02576 -0.69678,4.18063 1.39354,9.05803 -6.27096,12.54189 -7.66449,3.48386 -3.48386,0.69678 -6.27095,8.36127 -2.78708,7.66448 -1.39354,6.96772 -6.96772,9.7548 -5.57417,2.78709 -22.2967,9.75481 -26.47734,9.75481 -4.18062,0 -4.87739,2.7871 -6.27093,9.05804 -1.39356,6.27095 -4.18064,6.96773 -8.36127,7.66449 -4.18064,0.69678 -7.6645,-2.78708 -11.14836,2.09032 -3.48385,4.87739 0,6.96771 -13.23867,6.27095 -13.23867,-0.69678 -29.96119,-6.27095 -29.96119,-6.27095 0,0 -10.45158,6.27095 -22.29671,9.75481 -11.84513,3.48386 -15.32898,-3.48386 -22.2967,-3.48386 -6.96772,0 -10.45157,-1.39356 -13.23867,1.39354 -2.78708,2.78708 -8.36126,-2.09032 -11.14835,4.18064 -2.78708,6.27093 0,11.84511 -7.66449,11.84511 -7.6645,0 -9.05804,2.09032 -12.5419,-0.69676 -3.48385,-2.7871 -7.66449,-4.18064 -17.4193,-3.48386 -9.75481,0.69676 -11.14835,-4.18064 -13.23867,-9.05805 -2.09032,-4.8774 -10.45158,-4.18062 -13.23867,0 -2.78708,4.18064 2.78709,9.05805 0,11.84513 -2.78708,2.78709 -3.48386,0 -7.66448,1.39354 z"
       id="path8550"
       inkscape:connector-curvature="0" />
    <path
       style="color:#000000;fill:#d69c74;fill-opacity:1;fill-rule:nonzero;stroke:none;stroke-width:10;marker:none;visibility:visible;display:inline;overflow:visible;enable-background:accumulate"
       d="m 379.9068,405.34934 -3.92306,2.62974 c -3.9023,0.65038 -2.59622,-1.96605 -8.44967,2.58663 -5.85346,4.55269 -7.80301,13.0194 -7.80301,13.0194 l -6.5097,-0.64666 c 0,0 -7.78811,-7.79557 -10.38965,-9.09633 -2.60153,-1.30077 -5.20148,0 -7.80301,0 -1.7601,0 -4.6125,0.84491 -6.33725,1.42265 0.16259,-0.3252 -0.83614,-0.77227 -5.38882,-1.42265 -9.10537,-1.30077 -7.78067,-3.93796 -11.68297,-1.33643 -3.90231,2.60153 -8.47202,3.26523 -4.56972,5.21638 3.9023,1.95115 5.20148,3.89857 7.80301,0.64666 2.60154,-3.25192 -0.669,-3.88368 3.2333,-3.23329 3.9023,0.65038 3.27854,5.81992 10.43275,5.81992 7.15422,0 12.37274,-4.52661 12.37274,-4.52661 0,0 5.83696,5.20521 10.38964,7.15636 4.55269,1.95115 9.74299,1.31408 9.74299,5.21638 0,3.9023 -2.60526,8.44594 0.64666,9.09633 3.25193,0.65038 4.55855,3.22744 6.5097,-3.27641 1.95115,-6.50383 -3.9172,-7.13028 2.58663,-11.68296 6.50383,-4.55269 9.1453,-9.76161 15.64914,-6.5097 6.50383,3.25192 5.17913,3.89699 11.68296,8.44967 6.50383,4.55269 14.95564,9.76162 15.60603,6.5097 0.65039,-3.25192 2.62017,-6.49107 -3.23329,-9.74299 -5.85345,-3.25192 -6.51184,-8.4534 -13.66606,-7.80301 -7.15421,0.65038 -13.01194,2.56587 -14.3127,-1.33643 -1.30077,-3.9023 -2.58664,-7.15635 -2.58664,-7.15635 z m -113.03591,5.04393 c -1.86731,0.019 -3.55343,0.60343 -5.99237,3.44885 -3.90231,4.55268 -3.90444,4.52661 -7.15635,4.52661 -3.25192,0 -4.55482,0.65411 -7.15636,-0.64666 -2.60153,-1.30077 -8.44222,-3.25192 -9.74299,0 -1.30076,3.25192 -1.32152,8.44967 -3.92306,8.44967 l -5.86303,0 c 0,0 -4.52289,-5.85717 -5.17327,0.64666 -0.65039,6.50383 1.26883,6.4948 -1.98309,9.09633 -3.25192,2.60155 -6.46658,2.62974 -6.46658,2.62974 0,0 -2.61111,-5.21637 -5.86304,-5.21637 -3.25192,0 -8.48161,1.93997 -10.43276,1.93997 -1.95115,0 -5.84069,0.017 -9.74299,4.56972 -3.9023,4.55268 -1.92507,8.44967 -4.52661,8.44967 -2.60153,0 -3.09245,2.18482 -5.0436,-0.41671 -1.95115,-2.60154 1.16226,-4.88958 -2.68705,-6.9264 -11.29431,-5.97629 -18.98725,-0.38563 -21.18187,1.8676 -5.17404,5.31218 -7.55506,5.01294 -7.22986,6.55288 0.48845,2.31304 3.41065,4.83918 0.15872,5.48957 -3.25192,0.65038 -8.27013,-0.72997 -4.36783,3.82271 3.9023,4.55268 -2.92178,7.03724 -2.27139,10.28916 0.65038,3.25192 1.667,1.5441 4.26853,5.4464 2.60154,3.9023 5.67839,3.82517 6.826,5.40314 4.62221,6.35555 11.35048,7.48298 4.19625,8.13338 -7.15421,0.65038 -8.47416,0 -11.72607,0 -3.25192,0 -2.60367,-1.28375 -7.15636,4.56972 -4.55268,5.85345 -4.51916,3.90071 -5.81992,7.80301 -1.30077,3.9023 -3.93051,0.65997 -2.62975,5.86304 1.30077,5.20306 -3.90602,6.49479 0.64666,9.09633 4.55268,2.60153 8.48906,0.63176 9.13944,3.23329 0.65038,2.60153 -1.9586,-0.62962 1.29332,3.92306 3.25191,4.55268 7.78225,0.01 3.87995,5.86304 -3.9023,5.85345 -5.8311,5.83696 -3.87995,10.38964 1.95115,4.5527 1.9288,4.5527 3.87995,0 1.95115,-4.55268 4.5511,-9.09633 7.80301,-9.09633 3.25192,0 9.12242,-0.0171 4.56972,-4.56972 -4.55268,-4.55268 0.64825,-0.64879 -7.15635,-7.80301 -7.8046,-7.15421 -16.25427,-16.90679 -8.44967,-15.60602 7.8046,1.30076 7.14518,11.69572 9.09633,1.93997 1.95115,-9.75575 0.01,-7.134 5.86303,-11.0363 5.85347,-3.9023 1.9421,-6.50225 9.09633,-7.80302 7.15422,-1.30076 13.65116,-3.24446 16.25269,-1.29331 2.60153,1.95115 1.31035,2.59035 5.86304,1.93997 4.55268,-0.65038 9.74298,-5.19775 9.74298,-8.44967 0,-3.25192 7.83495,-2.58663 9.7861,-2.58663 1.95115,0 7.78067,2.57332 11.68297,-2.62975 3.9023,-5.20307 3.92306,-7.15635 3.92306,-7.15635 0,0 -0.0373,-3.26151 6.46658,-5.86304 6.50384,-2.60153 5.24087,1.97722 8.49279,-4.52661 3.25191,-6.50383 2.57918,1.94901 3.87995,-7.15635 1.30076,-9.10537 -7.81578,-9.12453 1.93997,-11.72608 9.75575,-2.60153 18.22087,-9.07557 20.82241,-5.17327 2.60153,3.9023 -3.2349,11.06238 4.56972,6.5097 7.8046,-4.5527 9.08143,-5.20893 11.68296,-6.5097 2.60153,-1.30076 4.54737,3.90975 8.44967,-1.29331 3.9023,-5.20307 0.65997,-6.51343 5.86304,-5.86304 5.20307,0.65038 7.80301,-1.98309 7.80301,-1.98309 -4.55268,-3.9023 -6.51183,-7.13559 -13.66605,-3.23329 -7.15421,3.9023 -8.43849,7.80301 -10.38964,7.80301 -1.95115,0 0.66528,-2.60739 -2.58664,-6.50969 -3.25191,-3.9023 -0.0207,-8.44968 -3.92306,-8.44968 -1.46336,0 -2.63023,-0.18387 -3.75062,-0.17244 z m 77.16792,15.39048 c -1.2093,-0.061 -2.85381,0.0628 -5.13016,0.38799 -9.10537,1.30077 -13.64156,-1.96232 -10.38965,1.93998 3.25192,3.9023 5.86304,8.49278 5.86304,8.49278 0,0 -0.0171,2.58291 -4.56972,3.23329 -4.55268,0.65038 -11.7149,-0.64666 -13.66605,-0.64666 -1.95115,0 -12.35197,-1.9586 -8.44967,1.29332 3.90231,3.25192 9.78025,6.50225 3.2764,7.80301 -6.50383,1.30077 -8.45553,1.28587 -14.95936,2.58664 -6.50384,1.30076 -9.76003,3.2764 -14.31271,3.2764 -4.55269,0 -9.12455,-5.85717 -11.72608,0.64666 -2.60153,6.50383 -1.93997,9.74299 -1.93997,9.74299 0,0 5.85717,0.68232 -0.64666,1.98308 -6.50384,1.30077 -4.57557,-0.007 -11.07942,1.29332 -6.50383,1.30077 -11.68296,-1.33056 -11.68296,5.17327 0,6.50383 1.92294,6.49852 -2.62975,8.44967 -4.55268,1.95115 -7.1489,0.66742 -8.44967,4.56972 -1.30077,3.90231 -0.65625,2.59782 -6.50969,0.64666 -5.85345,-1.95115 -6.49108,-10.41945 -9.74299,-5.21638 -3.25192,5.20307 -8.4667,5.86304 -13.0194,5.86304 -4.55268,0 -7.1489,-4.55269 -8.44967,0 -1.30076,4.55269 1.29863,5.20148 -7.15635,7.80301 -8.45498,2.60153 -9.73926,-2.57705 -10.38965,3.2764 -0.65038,5.85345 2.58077,1.94212 -3.92306,9.09633 -6.50383,7.15422 -7.76735,0.64508 -6.46658,8.44967 1.30076,7.8046 -2.62016,9.12455 3.23329,11.72608 5.85345,2.60153 7.80301,6.48893 7.80301,2.58663 0,-3.9023 -5.85345,-1.29918 0,-7.80301 5.85345,-6.50383 4.54737,-3.90444 8.44967,-7.15635 3.9023,-3.25192 10.41945,-0.006 5.21638,-6.5097 -5.20306,-6.50383 -7.79715,-6.49852 -1.29332,-8.44967 6.50384,-1.95115 4.52503,1.28 12.32963,-3.92306 7.80461,-5.20307 9.74671,-9.72597 9.09633,-5.17327 -0.65039,4.55268 0,3.23915 0,9.74299 0,6.50383 -2.5696,3.27481 1.98308,11.07941 4.55269,7.8046 3.89327,13.64529 9.09633,9.74299 5.20307,-3.9023 6.52087,-4.55109 4.56972,-7.80301 -1.95115,-3.25192 -4.56972,-5.19031 -4.56972,-9.74299 0,-4.55268 -12.37059,-7.18084 -5.21638,-10.43276 7.15422,-3.25191 6.51929,-8.45127 12.37274,-0.64666 5.85345,7.8046 -1.94157,7.8275 5.86303,11.07942 7.8046,3.25192 8.44223,-0.0298 9.74299,5.17327 1.30077,5.20307 0.63176,6.49638 3.2333,1.29332 2.60153,-5.20307 -0.64666,-10.38965 -0.64666,-10.38965 0,0 -1.29704,-9.12082 -0.64666,-12.37273 0.65038,-3.25193 8.48161,-7.15636 10.43276,-7.15636 1.95116,0 8.44967,-0.64666 8.44967,-0.64666 0,0 1.95329,-6.48734 7.15635,-10.38964 5.20307,-3.9023 12.35411,-6.5097 15.60603,-6.5097 3.25191,0 11.71117,4.54896 14.31271,0.64666 2.60153,-3.9023 -6.52618,-3.26151 3.87995,-5.86304 10.40614,-2.60153 20.83571,7.16753 26.03878,5.21638 5.20307,-1.95115 3.87837,-5.84228 11.68297,-1.93998 7.80459,3.9023 14.3127,4.52661 14.3127,4.52661 0,0 -0.64293,-7.14518 -1.29331,-9.09633 -0.65039,-1.95115 0.6674,-3.89112 4.56972,-1.93997 3.9023,1.95115 9.73926,6.48893 10.38964,2.58663 0.65039,-3.9023 8.46616,-3.25033 -1.93997,-7.80301 -10.40615,-4.55268 -11.70373,-3.90071 -15.60603,-7.80301 -3.9023,-3.9023 -3.25778,-7.13401 -6.50969,-11.03631 -2.43894,-2.92673 -2.32134,-4.77479 -5.94926,-4.95771 z"
       id="path8978"
       inkscape:connector-curvature="0"
       sodipodi:nodetypes="ccsccsscsssssscssssssssssscsssssscsscsssssssssssssssssssssssssssssssssssscssssssssscsssssssscssssssscssssssssssssssssssssssssssssssscsscsssssscsssssss" />
    <path
       style="color:#000000;fill:#333333;fill-opacity:1;fill-rule:nonzero;stroke:none;stroke-width:10;marker:none;visibility:visible;display:inline;overflow:visible;enable-background:accumulate"
       d="m 255.98577,537.84642 c 0,0 -4.55268,9.10536 3.9023,13.00766 8.45499,3.9023 26.01534,5.85345 26.01534,5.85345 l 0,-7.8046 9.10537,3.9023 c 0,0 5.85345,7.15423 8.45498,6.50385 2.60154,-0.65038 18.21075,8.45498 22.76343,9.10537 4.55268,0.65038 11.05652,4.55268 18.86112,1.30076 7.8046,-3.25191 11.7069,-6.50383 12.35728,-9.75575 0.65038,-3.25193 -4.55268,-4.55269 0.65038,-5.20308 5.20307,-0.65038 4.55268,1.30077 8.45498,-1.30076 3.90232,-2.60154 13.65807,-14.95882 13.65807,-14.95882 0,0 1.30076,-3.9023 2.60153,-8.45498 1.30077,-4.55268 -0.65038,-13.00766 -2.60153,-14.95881 -1.95115,-1.95115 -4.55269,-3.9023 1.95115,-1.30077 6.50383,2.60153 15.6092,6.50383 15.6092,6.50383 0,0 -1.30077,0.65038 1.30076,-4.55268 2.60154,-5.20307 0.65039,-7.8046 4.55269,-2.60153 3.9023,5.20306 -0.65039,10.40613 7.15421,11.70689 7.8046,1.30077 11.05653,6.50384 16.2596,3.9023 5.20306,-2.60153 8.45498,1.30077 5.85345,-6.50383 -2.60154,-7.8046 -6.50384,-9.75575 -1.30077,-11.05651 5.20307,-1.30077 3.9023,1.95115 11.05652,-2.60154 7.15421,-4.55269 11.7069,-3.25193 9.10536,-7.15423 -2.60153,-3.9023 -4.55268,-1.30076 -4.55268,-6.50383 0,-5.20307 4.55268,-4.55268 7.8046,-5.20307 3.25192,-0.65038 9.75575,-5.85345 12.35728,3.25192 2.60153,9.10537 -7.15421,11.7069 -0.65038,15.60921 6.50384,3.9023 9.75576,1.30077 7.80461,7.8046 -1.95115,6.50383 5.20307,12.35728 -3.9023,13.65805 -9.10538,1.30077 -13.00768,-5.20307 -14.30844,2.60153 -1.30077,7.8046 -7.15422,13.65805 -7.15422,13.65805 0,0 -0.65038,1.95115 0.65038,5.85345 1.30077,3.9023 3.9023,8.455 -3.25191,1.30077 -7.15422,-7.15422 -8.45499,-15.6092 -11.05652,-9.10537 -2.60153,6.50383 0.65038,6.50383 -1.95115,14.30845 -2.60153,7.8046 -4.55268,9.75575 -9.75575,9.75575 -5.20308,0 -7.15423,-3.9023 -11.70691,0 -4.55268,3.9023 -9.10537,5.85345 -9.75575,1.30076 -0.65038,-4.55268 5.20307,-9.75575 -0.65038,-9.75575 -5.85345,0 -11.05652,-3.25193 -9.10537,2.60154 1.95115,5.85345 8.45498,5.20306 5.20307,9.75575 -3.25192,4.55268 -1.95115,5.85345 -7.8046,7.15421 -5.85345,1.30077 -6.50384,-7.15421 -9.75575,1.95115 -3.25192,9.10537 -0.65039,10.40614 -7.15422,11.05652 -6.50385,0.65038 -6.50385,0 -11.05653,0 -4.55268,0 -9.75575,-1.30077 -13.00766,3.9023 -3.25192,5.20306 -5.85345,7.15421 -7.8046,7.8046 -1.95115,0.65038 -5.20307,1.30076 -9.10537,-0.65039 -3.9023,-1.95115 -5.20307,-5.85345 -14.95882,-1.95115 -9.75576,3.9023 -13.65806,9.75577 -17.56036,4.55269 -3.9023,-5.20307 0.65039,-0.65039 -5.85345,-8.45499 -6.50383,-7.80459 -13.65805,-11.70689 -13.65805,-11.70689 0,0 5.85345,-1.30077 -6.50383,1.30076 -12.3573,2.60154 -24.71458,-1.95115 -21.46266,-3.9023 3.25192,-1.95115 8.45498,-9.10536 3.25192,-1.95115 -5.20307,7.15422 -14.30844,5.85345 -17.56035,7.8046 -3.25192,1.95115 -5.85345,4.55269 -8.45499,9.75575 -2.60153,5.20307 -5.85345,9.75575 -10.40613,7.8046 -4.55268,-1.95115 -3.9023,-12.35728 -9.75576,-5.20307 -5.85345,7.15422 -8.45498,6.50384 -9.10537,10.40615 -0.65038,3.9023 1.95115,8.45498 -3.25191,9.10537 -5.20307,0.65038 -13.65805,-1.95115 -18.21073,-5.20307 -4.55269,-3.25192 -14.30844,-5.20307 -13.00767,-16.2596 1.30077,-11.05651 3.25192,-13.00766 -1.30077,-14.30843 -4.55269,-1.30076 -1.30076,0 -7.15423,-3.9023 -5.85345,-3.9023 -6.50383,-1.95115 -7.15421,-9.10536 -0.65039,-7.15422 -7.15422,-7.15422 -0.65039,-9.10537 6.50384,-1.95115 4.55269,-7.80461 4.55269,-7.80461 0,0 2.60153,-3.9023 6.50383,1.95115 3.90231,5.85346 3.25193,1.30078 4.5527,10.40614 1.30076,9.10537 7.15421,10.40614 7.15421,10.40614 10.40614,3.9023 14.30843,9.75575 21.46265,5.85345 7.15422,-3.9023 13.00767,-11.7069 12.35728,-4.55269 -0.65038,7.15422 -3.25191,12.35729 6.50383,9.10537 9.75577,-3.25192 16.90998,-1.30077 18.21075,-6.50383 1.30077,-5.20307 3.25192,-3.25192 2.60153,-9.10537 -0.65038,-5.85345 1.95115,-8.45498 -3.9023,-10.40613 -5.85345,-1.95115 -4.55268,0 -8.45498,-3.25192 -3.9023,-3.25193 -9.75576,-4.5527 -7.15423,-7.80461 2.60155,-3.25192 6.50385,-1.30077 3.90231,-6.50384 -2.60153,-5.20306 -3.90231,-4.55268 -5.85346,-8.45498 -1.95115,-3.9023 -5.85345,-1.30076 -1.30077,-7.15421 4.5527,-5.85345 1.30077,-13.65805 4.5527,-5.85345 3.25192,7.8046 3.9023,9.75575 5.20307,16.25958 1.30076,6.50383 1.30076,13.65805 3.9023,14.30843 2.60153,0.65038 2.60153,2.60153 11.7069,7.15423 9.10536,4.55268 15.6092,12.35728 19.5115,9.10537 3.9023,-3.25192 10.40614,1.30076 4.55268,-6.50384 -5.85345,-7.80461 -9.10537,-9.75576 -8.45498,-12.35729 0.65038,-2.60154 4.55268,-13.65805 4.55268,-13.65805 z"
       id="path8974"
       inkscape:connector-curvature="0" />
    <path
       style="color:#000000;fill:#333333;fill-opacity:1;fill-rule:nonzero;stroke:none;stroke-width:10;marker:none;visibility:visible;display:inline;overflow:visible;enable-background:accumulate"
       d="m 143.15435,579.01854 c 0,0 -7.15422,10.40614 -8.45499,13.65807 -1.30076,3.25191 -5.85344,3.9023 -5.85344,3.9023 0,0 3.9023,4.55268 5.20306,8.45498 1.30077,3.9023 -3.25191,5.85345 2.60153,6.50383 5.85345,0.65038 13.65805,-1.95115 16.25959,-1.95115 2.60153,0 5.20308,0.65038 5.20308,2.60153 0,1.95115 -1.95117,6.50384 -1.95117,6.50384 0,0 3.25193,13.65805 5.20308,16.25958 1.95115,2.60153 0,3.25192 4.55269,3.25192 4.55268,0 4.55268,-1.30077 7.15421,1.30076 2.60154,2.60155 0,3.90232 5.20307,2.60155 5.20307,-1.30078 10.40613,-1.95116 10.40613,-1.95116 l 7.15422,15.60921 c 0,0 -4.55269,0.65038 -2.60154,4.55268 1.95115,3.9023 1.95115,5.20307 5.85345,4.55268 3.9023,-0.65038 4.55269,-3.9023 10.40615,-1.95115 5.85345,1.95115 19.5115,8.45499 22.11303,8.45499 2.60153,0 10.40613,1.95115 9.75575,-1.30077 -0.65038,-3.25192 -5.20307,-2.60153 -2.60153,-8.45498 2.60153,-5.85345 20.81226,-14.30843 23.41381,-13.00767 2.60153,1.30077 3.25192,4.55269 7.15421,5.85345 3.9023,1.30077 6.50384,1.30077 14.30844,-1.30076 7.8046,-2.60154 3.25191,-5.85345 11.7069,-2.60154 8.45498,3.25192 20.16189,4.55269 20.16189,4.55269 0,0 9.10537,-0.65039 12.35728,-3.9023 3.25192,-3.25192 5.85345,-5.20307 6.50384,-7.8046 0.65038,-2.60155 2.60153,-9.10538 5.20306,-1.30077 2.60154,7.8046 -5.85345,7.15422 1.95115,9.75575 7.8046,2.60153 18.86112,2.60153 21.46267,2.60153 2.60153,0 1.30076,-0.65038 9.10536,0.65039 7.8046,1.30076 13.65805,-1.30077 16.25958,-2.60154 2.60154,-1.30076 7.8046,2.60154 13.00767,2.60154 5.20307,0 9.75575,-2.60154 11.7069,-3.9023 1.95116,-1.30077 3.90231,-3.9023 5.20308,-7.15422 1.30076,-3.25193 0,-7.15423 5.20306,-4.5527 5.20307,2.60155 -1.30076,6.50385 7.15422,4.5527 8.45498,-1.95115 10.40613,-8.455 7.8046,-8.455 -2.60153,0 -7.8046,1.95115 -3.25192,-3.25191 4.55269,-5.20307 18.21074,-7.15422 18.21074,-7.15422 0,0 3.25191,2.60153 11.05651,-1.30077 7.80461,-3.9023 9.75576,-7.15421 10.40615,-9.75575 0.65038,-2.60153 -0.65039,-6.50383 -0.65039,-6.50383 0,0 -5.85344,0.65038 0,-3.9023 5.85345,-4.55268 9.10537,-0.65038 11.7069,-4.55268 2.60154,-3.9023 1.95115,-3.9023 2.60154,-8.45498 0.65038,-4.5527 -2.60154,-9.10538 -1.30077,-11.70692 1.30077,-2.60153 2.60153,-1.30076 4.55268,-5.20306 1.95115,-3.9023 2.60154,-4.55269 1.95115,-7.8046 -0.65038,-3.25192 1.30077,-6.50384 -5.85345,-9.10537 -7.15421,-2.60153 -9.10536,-9.10536 -9.75575,-11.7069 -0.65038,-2.60153 -2.60153,-3.25191 -5.85345,-2.60153 -3.25191,0.65038 -11.05652,13.00766 -4.55268,13.00766 6.50383,0 8.45498,-0.65038 8.45498,3.25192 0,3.9023 9.10537,7.8046 0,11.05652 -9.10536,3.25191 -12.35729,3.9023 -12.35729,3.9023 0,0 -3.25192,9.10536 -3.25192,11.7069 0,2.60153 5.20308,9.75576 -0.65038,11.70691 -5.85345,1.95115 -3.9023,1.95115 -10.40613,2.60153 -6.50384,0.65039 -6.50384,-0.65038 -11.05652,-1.95115 -4.55268,-1.30076 -12.35728,-5.20306 -15.6092,-5.20306 -3.25192,0 -8.45498,0 -11.05653,2.60153 -2.60153,2.60153 -6.50383,8.45498 -1.95115,8.45498 4.5527,0 10.40615,1.95115 8.455,5.20307 -1.95115,3.25191 0.65038,7.15421 -4.5527,7.8046 -5.20306,0.65038 -13.00766,3.9023 -12.35728,-1.95115 0.65038,-5.85345 0,-7.15422 -3.25192,-7.15422 -3.25191,0 -12.35728,-2.60153 -9.10536,4.55268 3.25191,7.15422 5.85345,11.05652 1.30076,11.05652 -4.55268,0 -4.55268,7.15422 -7.8046,-1.30077 -3.25191,-8.45498 -27.31611,-18.86111 -27.31611,-18.86111 l -6.50383,6.50383 c 0,0 -2.60153,8.45498 -5.85345,8.45498 -3.25192,0 -1.30077,-1.30076 -7.15422,-5.20306 -5.85345,-3.9023 -9.10536,-7.15422 -11.05651,-3.25192 -1.95115,3.9023 -1.95115,3.9023 -5.85345,7.8046 -3.9023,3.9023 -2.60153,9.75575 -12.3573,11.05652 -9.75575,1.30076 -14.95881,1.95115 -14.95881,1.95115 0,0 -1.95115,1.95115 -4.55269,-3.9023 -2.60153,-5.85345 -4.55268,-11.05652 -15.6092,-13.00767 -11.05651,-1.95115 -14.30844,-6.50383 -16.25959,-0.65038 -1.95115,5.85345 1.30077,3.25191 -3.25192,9.10536 -4.55268,5.85345 -10.40613,7.15422 -10.40613,7.15422 0,0 -5.85345,0.65038 -3.25192,-5.85345 2.60154,-6.50383 5.85345,-11.7069 1.30077,-12.35728 -4.55268,-0.65039 -1.95115,-6.50383 -7.8046,-0.65039 -5.85345,5.85345 -9.75575,1.95115 -7.15422,9.10537 2.60154,7.15422 4.55269,8.45498 0,9.10537 -4.55268,0.65038 -7.15421,2.60153 -12.35728,0.65038 -5.20308,-1.95115 -12.35729,2.60153 -14.95883,-3.9023 -2.60153,-6.50383 -2.60153,-9.75575 -2.60153,-9.75575 0,0 1.30077,-2.60153 -5.20307,-1.30077 -6.50383,1.30077 -6.50383,3.9023 -11.70689,3.9023 -5.20307,0 -16.25959,3.25192 -9.75575,-1.95115 6.50383,-5.20306 9.75575,-5.20306 7.15421,-7.15421 -2.60153,-1.95115 -0.65038,-1.30077 -9.10536,-5.20307 -8.45499,-3.9023 -13.65807,0 -14.95883,-5.20306 -1.30077,-5.20307 0.65038,-5.20307 0.65038,-9.75577 0,-4.55268 -5.85345,-1.95115 -7.8046,-5.85345 -1.95115,-3.9023 -0.65038,-3.9023 -0.65038,-3.9023 z"
       id="path8972"
       inkscape:connector-curvature="0" />
    <path
       style="color:#000000;fill:url(#linearGradient4848);fill-opacity:1;fill-rule:nonzero;stroke:none;stroke-width:1;marker:none;visibility:visible;display:inline;overflow:visible;enable-background:accumulate"
       d="m 380.03613,417.33407 c -8.26044,-1.77252 -25.73394,11.154 -22.33796,14.03625 8.12798,1.16792 18.16969,16.37465 11.42953,-0.0683 -6.67091,-13.47344 25.28329,-13.29253 11.2909,-0.47622 -11.06706,9.13285 18.33951,8.03985 8.88723,20.02593 7.60767,7.55318 10.37925,-14.9745 19.98155,-4.17162 5.25783,8.16615 8.6397,25.78457 16.988,12.51444 7.85205,1.16083 15.69756,11.21911 16.61118,9.48172 8.54408,-6.22805 15.00932,8.16916 19.09904,12.67702 -8.6913,4.67766 -6.16025,12.1885 3.75434,8.70833 11.80038,1.583 2.78211,21.59295 -8.22335,21.711 -5.41197,2.23597 7.54051,11.77403 1.59448,18.79978 -0.20739,13.54317 5.26006,2.43934 10.8106,-0.11616 6.06204,1.32669 16.15115,-0.14062 4.44748,-3.20256 -13.86844,-4.72604 -5.45321,-15.7626 1.80355,-21.88779 7.0361,-11.70866 -6.03192,-23.333 -14.2305,-30.50112 5.82,-18.29432 -21.16944,-8.35353 -24.78456,-16.87739 2.49371,-13.45692 -22.54109,9.75776 -22.29868,-7.99702 1.09399,-18.20531 -16.95164,-6.74343 -25.75538,-10.19767 6.86803,-12.5242 11.13759,-23.21101 -9.06745,-22.45858 z m -86.39358,7.63057 c -14.57874,-1.80854 -13.00677,12.90356 -19.95055,18.81103 -10.13497,4.03795 -3.39374,-15.63038 -15.62463,-10.37462 -13.2728,0.37375 -28.00409,11.00459 -32.82762,22.67367 3.16112,12.48332 -6.8375,15.39492 -16.45416,11.85675 -9.51767,0.7008 -18.69181,23.76086 -5.02857,10.27473 1.93232,-5.38969 17.22236,-8.15382 12.2519,-0.69032 3.17764,0.98569 7.48337,-7.07135 13.52822,-2.11187 12.88373,-0.95988 -9.02912,-25.3724 9.68176,-22.02204 10.66959,4.22361 9.31206,-0.5251 7.35665,-8.87777 5.58435,-12.54257 22.52248,0.5109 20.74013,11.12188 7.80094,-2.81838 11.05838,-13.76855 21.41227,-13.67587 8.43165,-4.47467 -16.55856,-7.11376 -2.74804,-11.96218 11.97238,-6.20976 15.46235,8.722 22.59177,11.07227 5.60422,-4.42323 24.0702,-5.00276 7.40136,-8.2733 -8.81487,-1.24676 -12.17771,-9.82637 -22.33049,-7.82236 z m 14.61449,28.84098 c -8.4772,-1.01351 -24.31836,4.95901 -9.58795,10.99845 -2.01811,10.97832 -22.52599,1.10444 -28.36828,4.13522 15.20284,12.61698 -9.50898,6.752 -13.60401,12.06909 1.28417,5.87208 6.60227,11.23193 7.52387,17.28275 2.1792,-5.71187 -1.68605,-21.06083 8.24241,-10.43722 9.88504,6.84512 3.69041,-17.00323 16.86178,-14.63357 8.91204,4.51317 12.77897,1.26061 15.23312,-8.10789 7.05418,-15.68121 21.80479,12.04669 32.63786,0.29076 7.16086,-1.91449 19.09538,2.65124 12.38944,10.57232 3.39174,3.55428 30.28084,12.21445 21.09582,5.33943 -9.79442,-7.96517 -19.16278,-16.54755 -29.22039,-24.10056 -9.72021,-0.10802 -18.97092,3.28377 -28.21579,-3.16691 l -2.19218,-0.17862 -2.7957,-0.0632 z m 59.88058,5.13015 c -7.43153,5.87725 13.0676,12.34033 15.33132,19.89094 7.35502,-0.84594 11.05692,-11.88437 20.32148,-4.91206 16.6511,2.06081 9.42315,23.46858 16.23361,34.16427 12.29059,8.672 -1.66645,-20.51271 11.57234,-13.83559 13.22857,-1.23655 8.05943,-10.60152 -0.6381,-14.31198 -11.5165,-6.87351 -26.28323,-21.0955 -40.48883,-11.49024 -7.14347,-3.49127 -13.9213,-9.22757 -22.33182,-9.50534 z m 72.6413,12.37274 c -1.91667,3.59034 -1.90499,7.76078 0,0 z m -273.96766,14.57137 c -10.2321,2.98508 -25.08541,23.33494 -4.74584,19.20678 9.8343,8.60115 -8.58334,14.19432 -0.81542,23.99001 -0.37608,11.32707 -27.95106,20.52417 -7.85192,30.39033 8.571,7.43113 -7.37842,15.59471 1.55778,23.92898 -5.98203,7.17439 -2.25577,17.34306 8.01856,12.0226 12.09343,-3.17474 -4.70189,16.47123 10.20407,18.30514 11.62007,3.35154 28.32937,6.79434 26.55075,-10.60994 0.5555,-3.87234 -6.30762,-15.68432 2.60513,-7.66314 7.91822,8.47283 10.97565,-14.67399 15.28835,-1.25851 11.45484,5.13865 17.13757,-10.52487 14.67405,-18.17594 8.02076,-3.35501 14.91984,-8.2234 4.49061,-14.53527 -4.51088,-3.70296 -17.37251,-18.85299 -9.70754,-5.33869 6.26282,7.06763 1.33938,12.45123 -6.63903,12.63927 4.08844,7.26399 1.66069,19.86639 -7.63057,11.85541 -5.60548,5.02782 -21.74791,-0.78435 -22.33128,6.25103 4.28606,8.19588 8.7295,22.32098 -6.33833,18.15719 -14.94359,0.29202 1.42905,-21.10529 -10.6837,-14.28106 -10.28714,-1.61857 -13.07756,-11.51452 -6.13414,-17.36186 5.23352,-12.6861 -21.62217,-22.86656 -11.67717,-30.40083 8.09451,-2.12017 20.29085,7.89281 12.46433,-5.68666 -13.13317,-13.20101 19.86137,-20.6079 4.70338,-33.7508 -7.07847,-2.48735 -14.56919,4.19949 -9.79236,-7.11694 0.87945,-3.61613 1.49075,-7.51745 3.79029,-10.5671 z m 43.06746,1.46576 c -2.07993,9.98831 -15.50045,17.04771 -18.66688,14.52826 12.34982,9.20008 -2.51596,19.94127 2.06931,29.96184 11.48761,-0.20562 13.07926,17.66602 25.63759,7.11625 5.91732,0.10085 23.71827,-3.11124 10.55113,-9.40279 -7.12607,4.59121 -14.40802,3.71504 -14.55749,-6.09623 -5.50831,-1.61555 -21.98216,-0.54371 -8.74117,-6.68229 5.2724,-7.51433 11.06968,-18.0184 3.14707,-21.83758 -0.34167,-2.54619 0.1105,-5.092 0.56044,-7.58746 z m 164.29438,18.32199 c -3.90349,10.69148 -5.20893,30.30086 -18.97598,13.91739 -5.32136,9.40091 -18.05228,20.49773 -30.0407,26.55089 -13.80309,4.01744 -20.7515,-23.88113 -32.24675,-12.18775 -4.16682,11.37021 -15.84828,-8.01458 -23.61397,-9.45306 -8.64901,-3.80423 -25.74659,-13.58607 -19.10172,1.61512 7.22168,16.03063 28.37305,-1.48114 33.12808,13.09297 3.30927,22.93662 22.35059,-4.24784 32.54142,7.05091 10.62913,7.55818 25.44416,12.87786 36.96988,4.42096 8.58137,-5.42738 -6.3773,-18.17296 9.00835,-17.56893 16.34579,4.95868 13.94687,-18.2188 12.33139,-27.4385 z M 248.76445,516.1435 c -2.42736,-10.22638 -5.37266,-3.47873 0,0 z m -2.54352,-5.99237 -0.47643,-1.74763 0.47643,1.74763 z m 199.30016,7.07013 c -6.07077,7.65787 -12.441,3.36781 -20.21886,0.68977 12.51607,7.89954 14.17855,28.47737 -3.03032,30.7352 3.34248,7.49389 7.41963,22.64799 -6.77261,22.17106 -13.71036,10.1083 -15.81581,-9.8144 -18.67431,-15.14736 4.64019,11.50859 -11.04178,14.96818 -19.66081,13.34882 -8.79226,-7.99038 -12.32748,7.29943 -22.69197,5.70762 -3.56453,2.17192 -16.76859,10.19182 -7.84397,8.92237 -2.94777,-2.3693 16.71388,11.00004 20.17295,-0.25276 1.14656,-11.74402 24.51334,-17.88123 27.68224,-6.25103 -4.19756,15.32597 14.183,-6.25113 21.47833,4.05462 14.09515,4.91523 11.98336,-17.12652 26.04646,-15.08045 5.80163,-6.46764 -17.57914,-16.3887 0.44309,-15.74415 23.89731,-2.27458 -9.95443,-15.67896 3.06978,-33.15371 z m -52.37934,66.26094 -1.83002,0.882 1.83002,-0.882 z m -37.41998,-9.78609 c 7.26438,-7.19148 -5.54588,-3.5235 0,0 z m 14.39893,-8.40657 c 1.65676,-6.18408 -3.46298,-3.92805 0,0 z m 106.52622,7.07014 c -0.75802,10.04417 -19.48537,14.00655 -5.47731,21.67316 -9.1468,10.16103 -21.5093,3.40343 -25.23977,-7.58644 -12.14444,-5.794 -4.32276,3.11787 -7.78553,10.05852 -6.04985,4.39743 -16.25133,-4.77775 -9.00207,7.29206 2.59143,15.10781 -28.62659,-8.23489 -27.31375,9.36558 4.78392,8.43071 -17.61485,15.51092 -13.99023,0.9657 5.07001,-15.35234 -17.57255,-5.30919 -23.48332,-15.90695 -12.74545,-3.07007 5.51096,12.11752 -3.2235,18.1197 -7.42403,18.88751 -20.36261,-17.32177 -27.78405,-3.67295 4.59651,13.74118 -28.91405,15.11979 -17.38825,2.3775 -5.97294,-6.55859 -31.28172,7.18242 -14.47191,7.17646 1.12687,12.53512 20.11088,6.21153 29.07865,3.9711 9.94092,-13.10752 12.91913,13.84833 23.43394,0.74626 11.84369,-3.97797 24.64966,-26.32218 33.0836,-5.4368 13.46472,18.80751 25.99552,-19.73283 38.90858,-3.96303 6.022,-4.82899 11.02343,-27.324 20.9137,-13.61917 12.64885,4.06263 30.69978,-2.74299 33.76777,-16.43553 0.61438,-5.56438 -3.82645,-9.7077 -4.02655,-15.12517 z m -182.7457,47.93895 c -5.07919,-1.27493 -10.15379,0.31723 -2.05816,0.38521 l 2.05816,-0.38521 z m -7.37191,-0.51733 c -3.76499,-4.81289 7.87071,-23.51478 -4.73128,-18.07726 -0.1323,12.06157 -13.75668,1.20311 -11.84251,-5.44437 -12.07617,-14.73635 -17.01014,27.66086 -19.8622,6.25819 -1.02536,-6.43179 6.00837,-24.30105 -3.41131,-11.79253 -9.623,9.78493 1.01908,36.87075 13.10364,19.42968 13.16749,-11.91039 11.48182,19.32681 26.74366,9.62629 z m -48.62872,-6.42347 c -0.15699,5.45832 6.03526,15.47591 -4.18173,11.85541 -6.26449,-2.50218 -17.43965,-4.90887 -6.97116,3.24688 12.00133,5.29515 -16.07758,6.37123 -21.31534,7.73624 -10.59483,1.58774 -3.54875,-19.57049 -11.69029,-5.25065 -3.35694,14.85777 -18.4887,-6.06933 -17.01532,-1.97812 -0.94523,6.00123 -6.34607,7.60919 2.62969,8.10105 10.35855,5.39044 15.61692,18.94607 27.01712,5.70246 10.75322,-9.78648 33.28442,5.99887 37.08829,-13.37614 13.65277,-2.26283 0.14236,-11.17409 -5.56126,-16.03713 z"
       id="path9066"
       inkscape:connector-curvature="0" />
    <path
       style="color:#000000;fill:url(#linearGradient4845);fill-opacity:1;fill-rule:nonzero;stroke:none;stroke-width:1;marker:none;visibility:visible;display:inline;overflow:visible;enable-background:accumulate"
       d="m 352.10049,645.21654 c -3.49195,-2.02525 -8.44965,7.37185 -11.8521,5.85371 -4.66467,-2.08134 -7.55027,-13.80952 -10.17741,-4.34484 -0.59287,2.3821 -1.19003,4.96285 -2.84529,6.85458 -3.44885,3.94153 -0.49886,6.40499 -0.99155,10.34654 -0.49268,3.94153 -6.41732,18.2296 -8.88077,24.14191 -2.46346,5.91231 5.40114,6.88539 7.3719,8.36345 1.97077,1.47808 2.96848,5.43194 1.98309,8.88078 -0.98538,3.44885 -2.47577,3.43654 -5.43193,8.36345 -2.95615,4.92693 2.49426,10.82075 1.50887,14.2696 -0.98538,3.44885 -4.93309,5.43193 -4.44039,8.88078 0.49269,3.44884 0,23.64923 3.44885,24.14192 3.44884,0.49268 -4.91461,41.39231 -8.36346,42.37769 -3.44884,0.98539 -15.79694,-13.32117 -15.30425,-16.77002 0.49269,-3.44884 3.47349,-5.90614 0.51733,-12.80383 -2.95616,-6.8977 -1.47808,-6.87922 0,-10.82076 1.47808,-3.94153 6.38036,-8.36345 2.93152,-11.81229 -3.44885,-3.44885 -3.9169,-2.95616 -2.93152,-6.89769 0.98539,-3.94154 2.94999,-6.40501 -0.99154,-10.34654 -3.94155,-3.94153 -0.49271,-16.77618 0,-21.2104 0.49268,-4.43424 5.88767,-8.37577 6.38036,-10.34654 0.4927,-1.97076 -5.90615,-3.92921 -9.35499,-4.9146 -3.44885,-0.98539 0,-11.83694 0,-15.77847 0,-3.94153 1.98308,-9.82921 1.98308,-9.82921 0,0 -0.49884,11.95366 2.45731,8.99751 2.95615,-2.95615 8.86234,-12.93346 9.35499,-16.38232 0,0 10.43808,3.09218 4.00975,-1.94007 -5.71381,-4.47292 -4.19433,-10.73808 -7.42342,-11.40765 -3.29653,-0.68355 -11.28128,4.2176 -11.19754,-1.5988 0.053,-3.68344 -6.84211,4.91045 -10.83937,7.1152 -7.99199,4.40811 -6.78331,-1.95327 -10.0005,-1.64017 -3.34102,2.4951 3.26443,12.24649 7.86038,16.0246 1.97645,1.62476 7.41502,1.98309 7.41502,1.98309 0,0 -0.49269,7.88308 0,10.34654 0.49269,2.46347 1.97692,-1.66872 0.99155,1.78013 -0.9854,3.44884 -5.91232,8.8623 -3.44885,12.80383 2.46345,3.94155 1.97077,29.075 0,32.03116 -1.97077,2.95615 -4.95772,65.05384 -4.95772,65.05384 0,0 -6.37421,-15.77846 -5.38882,-19.22731 0.98538,-3.44884 -5.42576,-17.74308 -7.88923,-18.23577 -2.46346,-0.49269 -3.46732,-9.34269 -2.97463,-10.82075 0.4927,-1.47808 -1.46576,-8.88078 -4.9146,-12.32962 -3.44885,-3.44885 -7.89539,-13.78308 -8.88078,-18.70999 -0.98538,-4.92693 -4.93308,-10.35269 -4.44039,-14.78693 0.49269,-4.43423 -0.98539,-15.75383 -3.44885,-18.70998 -2.46353,-2.95616 -8.36352,-7.41502 -8.36352,-7.41502 0,0 -3.56839,8.50964 -0.77625,-8.27603 -1.80453,10.33169 3.86922,-8.22343 -1.10483,-6.24082 -2.47637,0.98706 -2.28236,4.7113 -5.57624,3.99292 -3.23234,-0.70495 -9.96794,-5.86861 -10.84646,-3.30104 -1.0144,2.96471 6.92679,5.87561 7.181,6.06627 5.91231,4.43423 5.70317,-4.56476 0.77625,3.31831 -4.92693,7.88308 4.42191,10.86386 11.81229,14.31271 7.39038,3.44884 3.45502,9.34267 0.99155,14.2696 -2.46346,4.92692 0.98539,14.78692 6.89769,18.23577 5.91231,3.44884 -1.45959,6.91616 -3.92306,20.21885 -2.46346,13.3027 -3.96001,35.96654 -6.42348,41.38615 -0.7619,1.67619 -4.22293,15.2339 -8.49278,32.50537 5.68755,34.95395 -0.0601,68.76438 17.63222,104.9188 l 142.37574,2.69133 24.16039,-168.91336 c 1.08845,-9.67302 -6.61513,-17.87084 -1.37954,-28.5392 6.29417,-9.17772 -4.24567,-13.48545 2.11242,-29.96184 1.99855,-2.63045 4.41974,-6.66651 0,-11.16564 -2.78009,-5.05882 -6.06543,-10.0769 -0.73288,-16.03713 6.19785,-6.65347 4.77913,-11.02131 2.93152,-15.26114 l -9.09633,6.5528 -9.39811,-2.93151 c 0,0 -4.89613,8.38192 -5.38882,11.33808 -0.49269,2.95614 -0.48653,13.29037 0.99155,18.70998 1.47807,5.41963 -4.47118,8.88695 -9.39811,16.77001 -4.92692,7.88309 -1.95229,19.68306 -0.47421,23.6246 1.47807,3.94153 1.97692,14.30039 0.99154,19.22731 -0.98539,4.92692 -15.77847,43.84345 -15.77847,43.84345 l -18.70999,14.78692 c 0,0 -14.30655,-8.40041 -13.32116,-14.31271 0.98537,-5.91231 -0.48037,-9.33036 1.98308,-12.28651 2.46346,-2.95616 3.44885,-5.45042 3.44885,-11.8554 0,-6.40501 -5.41961,-15.76615 -6.89769,-20.69308 -1.47808,-4.92692 -0.51116,-8.84997 0.47421,-10.82075 0.9854,-1.97077 4.46503,-7.89539 4.95772,-12.32962 0.49269,-4.43422 -3.44885,-7.88924 -3.44885,-7.88924 0,0 6.90385,-7.85844 7.88924,-9.82921 0.98538,-1.97076 -3.95387,-8.87461 -5.43193,-11.33808 -1.47808,-2.46345 1.95846,-7.88306 4.9146,-13.79538 2.95616,-5.9123 4.93308,-7.88307 4.44039,-10.34653 -0.49269,-2.46346 -1.47193,-9.36115 0.99154,-13.79539 2.13198,-3.83755 6.09122,-3.6352 6.16482,-6.38036 z"
       id="path8393"
       inkscape:connector-curvature="0"
       sodipodi:nodetypes="cscsssssssssssssssssssscsssssscacsssscsssssssccsssssssssscccccccccccsssssccsssssscsssssc" />
    <path
       style="color:#000000;fill:#666666;fill-opacity:1;fill-rule:nonzero;stroke:none;stroke-width:1;marker:none;visibility:visible;display:inline;overflow:visible;enable-background:accumulate"
       d="m 398.13704,785.47678 c 0,0 -0.56326,-19.0473 3.51344,-32.04223 4.11506,-13.11721 12.8656,-20.19935 11.81555,-23.69953 -2.09032,-6.96771 -6.96772,-18.81284 -3.48386,-19.50962 3.48386,-0.69676 7.66449,-4.18062 8.36127,-8.36126 0.69676,-4.18063 -2.09032,-13.23867 3.48386,-16.72252 5.57417,-3.48386 2.09032,-7.6645 4.8774,-16.02577 2.78709,-8.36125 2.09031,-20.90316 8.36127,-22.2967 6.27094,-1.39354 11.84511,4.87741 9.05803,6.27095 -2.78709,1.39354 -3.48386,11.84513 -3.48386,18.11607 0,6.27095 -1.39355,11.14835 -5.57417,12.54189 -4.18064,1.39356 -4.18064,11.84513 -4.18064,11.84513 0,0 1.39354,4.18064 -1.39354,4.87741 -2.78709,0.69677 4.8774,5.57418 6.96772,11.14835 2.09032,5.57418 7.66449,10.45158 2.78708,13.23866 -4.8774,2.7871 -16.02575,6.96773 -16.02575,6.96773 0,0 1.39354,-2.78709 3.48386,3.48386 2.09031,6.27095 -0.69678,6.27095 -4.18064,9.05803 -3.48386,2.7871 -5.57417,19.50963 -4.18062,27.1741 1.39354,7.6645 0.69676,3.48388 4.8774,9.05805 4.18063,5.57418 2.09032,9.7548 -1.39354,11.84512 -3.48386,2.09032 -4.87741,-3.48386 -3.48386,7.66449 1.39354,11.14835 0.69676,6.27095 1.39354,18.11608 0.69676,11.84512 3.48386,9.05804 -2.78709,13.23866 -6.27094,4.18063 -6.27094,6.96773 -6.27094,12.5419 0,5.57418 4.18062,2.09032 2.0903,9.05804 -2.0903,6.96772 -11.14835,11.14835 0,6.96772 11.14837,-4.18064 17.41931,-13.93544 20.2064,-20.90317 2.78708,-6.96771 9.05803,-10.45157 18.81285,-12.54189 9.75479,-2.09032 12.54189,-3.48386 11.84511,1.39354 -0.69676,4.87741 -2.09032,2.7871 -10.45157,7.66449 -8.36128,4.87742 -9.75482,3.48386 -7.6645,6.96772 2.09032,3.48387 4.8774,5.57418 -0.69678,7.66449 -5.57417,2.09032 -7.66449,1.39356 -6.96771,8.36127 0.69678,6.96772 8.36127,9.75482 -0.69678,10.45158 -9.05803,0.69678 -11.84511,-2.78708 -14.63221,4.18063 -2.78708,6.96772 3.48386,3.48386 -3.48386,9.75482 -6.96771,6.27095 -2.09031,1.39354 -11.84513,6.96771 -9.75479,5.57418 -9.05803,-2.78708 -9.05803,7.6645 0,10.45157 0,10.45157 -4.18062,13.23866 -4.18064,2.78709 -22.99348,2.78709 -22.99348,2.78709 z"
       id="path8406"
       inkscape:connector-curvature="0"
       sodipodi:nodetypes="csssssssssscssscsssssssssssssssssssssssscc" />
    <path
       style="color:#000000;fill:#e6e6e6;fill-opacity:1;fill-rule:nonzero;stroke:none;stroke-width:1;marker:none;visibility:visible;display:inline;overflow:visible;enable-background:accumulate"
       d="m 395.69144,865.91881 c 0,0 7.39038,-10.34653 7.39038,-13.30269 0,-2.95616 1.47807,-10.83923 5.41961,-12.3173 3.94153,-1.47808 6.89769,-6.8977 7.88308,-11.33193 0.98538,-4.43422 0.98538,-11.82462 2.95614,-12.3173 1.97077,-0.49269 4.92693,0 5.91232,-2.46346 0.98537,-2.46347 -0.98539,-4.92692 0,-8.86846 0.98537,-3.94155 8.37577,-6.89769 8.86846,-9.36116 0.49268,-2.46345 -0.49269,-4.43422 2.95615,-8.37577 3.44885,-3.94153 1.97077,-4.43422 3.44885,-8.86846 1.47806,-4.43422 2.95614,-5.9123 6.89769,-8.86845 3.94153,-2.95616 3.44884,-4.43424 3.44884,-6.89769 0,-2.46346 -5.91231,0.49268 -3.44884,-5.9123 2.46345,-6.40501 10.34654,-14.28809 12.3173,-16.25886 1.97077,-1.97076 1.47808,1.47808 1.97077,-4.43422 0.49269,-5.91231 5.9123,-12.31731 6.89769,-14.78077 0.98538,-2.46346 -0.98539,-2.46346 2.95616,-7.39038 3.94153,-4.92692 5.9123,-9.36116 8.37575,-11.33193 2.46347,-1.97076 7.3904,-2.95615 9.36116,-0.98537 1.97077,1.97076 0.98538,12.80999 -3.44884,13.30268 -4.43424,0.4927 -8.86846,3.94154 -7.88308,5.91231 0.98539,1.97077 5.41961,4.43422 4.92692,7.39038 -0.49269,2.95616 -4.43422,4.43424 -4.92692,6.89769 -0.49269,2.46346 1.47808,3.44885 -0.98538,6.89769 -2.46347,3.44885 -7.39039,6.40501 -9.85385,9.36115 -2.46345,2.95616 -2.95616,5.41963 -3.94153,10.34654 -0.98539,4.92692 -3.44885,3.94154 -5.91232,8.37577 -2.46345,4.43423 -1.97076,5.41961 -2.95614,8.86845 -0.98539,3.44885 -2.95616,1.47808 -4.43424,4.43424 -1.47807,2.95616 -3.44884,2.46345 -3.94153,7.39038 -0.4927,4.92692 -2.46347,11.82461 -5.41961,12.81 -2.95616,0.98538 -3.94155,0 -7.3904,0.49269 -3.44884,0.49269 -5.9123,1.47808 -4.92692,5.41961 0.98539,3.94154 1.97078,2.95616 -0.98538,8.86846 -2.95615,5.91232 -0.98539,7.3904 -4.92692,9.85385 -3.94153,2.46346 -3.44885,2.95616 -4.43424,6.89769 -0.98537,3.94154 3.94155,4.43424 0.49271,8.37577 -3.44885,3.94153 -1.97077,5.9123 -5.41962,7.39038 -3.44884,1.47808 -3.94154,-0.49269 -3.94154,4.43424 0,4.92692 1.97076,4.92692 -0.49269,6.89769 -2.46346,1.97076 -0.98539,0.98537 -6.89769,2.95614 -5.9123,1.97078 -5.9123,0.4927 -5.9123,0.4927 z"
       id="path8450"
       inkscape:connector-curvature="0" />
    <path
       style="color:#000000;fill:#b3b3b3;fill-opacity:1;fill-rule:nonzero;stroke:none;stroke-width:1;marker:none;visibility:visible;display:inline;overflow:visible;enable-background:accumulate"
       d="m 249.36185,910.7538 c 0,0 2.95614,-19.70769 2.46345,-24.14191 -0.49269,-4.43424 0,-22.66384 -7.88308,-31.03961 -7.88307,-8.37577 -18.72229,-18.22962 -21.67845,-22.17116 -2.95616,-3.94153 -2.46347,-9.85384 -1.97077,-11.33192 0.49269,-1.47808 0.49269,-2.95615 -2.95615,-2.95615 -3.44885,0 -4.43424,-6.89769 -6.40501,-7.39039 -1.97076,-0.49269 0,8.37577 -6.89769,-0.49269 -6.89769,-8.86845 -12.3173,-20.20038 -11.33191,-24.6346 0.98538,-4.43424 -4.92692,-5.91232 -4.43423,-11.33193 0.49268,-5.41961 -7.88307,-17.24423 -12.81,-17.24423 -4.92692,0 -16.25885,2.46347 -17.24422,-1.97077 -0.98539,-4.43423 1.47808,-10.83922 1.47808,-10.83922 0,0 -10.34654,-10.34654 -9.85385,-14.28808 0.49269,-3.94154 4.43422,-3.44885 3.94153,-8.37576 -0.49269,-4.92692 -8.86846,-0.98539 -9.85385,-5.41963 -0.98537,-4.43422 -2.95614,-9.36114 -0.98537,-9.85383 1.97076,-0.4927 1.97076,0 0.98537,-6.405 -0.98537,-6.40501 -5.41961,-16.75154 -0.49269,-18.22962 4.92693,-1.47807 4.92693,-3.94153 3.44885,-7.39038 -1.47808,-3.44885 -7.39038,0.98539 -9.36115,-1.97077 -1.97076,-2.95615 -5.41961,-11.82461 1.97077,-14.28807 7.39038,-2.46347 11.82462,-1.47808 11.82462,-1.47808 0,0 -1.97077,-5.91231 3.44884,-6.405 5.41961,-0.49269 10.34654,4.92693 10.34654,6.89769 0,1.97077 5.9123,5.91232 4.43422,9.36116 -1.47808,3.44885 4.43424,2.95615 6.405,4.92691 1.97077,1.97078 0.98539,8.86847 3.94154,10.83924 2.95615,1.97077 6.89769,6.40499 8.86845,11.33191 1.97078,4.92693 -2.46345,8.37577 -2.46345,8.37577 0,0 11.33193,3.44885 14.28807,8.86846 2.95616,5.41961 2.46347,17.24423 4.92692,21.18578 2.46347,3.94153 17.24423,9.36114 19.215,11.33191 1.97076,1.97077 3.44884,0.49269 0.98539,5.91231 -2.46347,5.41962 0.49268,9.36115 2.46345,12.81 1.97077,3.44884 3.44885,1.47807 2.46347,5.9123 -0.98539,4.43423 6.89769,11.82461 5.9123,16.75154 -0.98538,4.92692 -2.95616,1.97076 -2.46345,6.405 0.49268,4.43422 8.86845,9.36114 9.36114,11.82461 0.49269,2.46346 -1.47808,5.9123 -1.47808,10.34654 0,4.43422 9.36116,9.85383 11.82462,13.79538 2.46347,3.94154 -0.49269,9.36115 1.47808,12.80999 1.97076,3.44885 8.86846,11.33193 11.33192,17.24423 2.46346,5.91232 8.37576,5.41961 9.36115,7.88308 0.98539,2.46346 -10.83922,5.41962 -9.36115,8.86846 1.47807,3.44885 8.86846,2.46346 10.34654,6.89769 1.47807,4.43422 -1.97078,12.3173 -0.98539,18.22961 0.98539,5.91231 6.89769,4.92692 6.89769,10.34653 0,5.41963 0.49269,17.73693 -5.9123,18.72231 -6.405,0.98539 -10.83924,-2.95615 -14.28808,-4.92693 -3.44885,-1.97076 -3.44885,0.98539 -7.88307,0.98539 -4.43424,0 -7.88308,-9.36114 -5.41961,-14.28807 z"
       id="path8398"
       inkscape:connector-curvature="0" />
    <path
       style="color:#000000;fill:#999999;fill-opacity:1;fill-rule:nonzero;stroke:none;stroke-width:1;marker:none;visibility:visible;display:inline;overflow:visible;enable-background:accumulate"
       d="m 263.64992,645.68539 c 0,0 5.9123,-3.44885 4.43422,-7.39038 -1.47807,-3.94155 -7.88307,-9.36116 -12.3173,-9.36116 -4.43423,0 -7.39038,4.43424 -7.39038,8.86846 0,4.43423 2.95615,10.83924 4.43423,12.81 1.47807,1.97077 -0.98539,10.83923 -0.98539,15.76615 0,4.92693 2.46346,7.39038 5.9123,9.36115 3.44885,1.97078 -4.92691,7.39039 -4.43422,9.85385 0.49269,2.46347 3.94153,4.43423 5.9123,6.405 1.97077,1.97077 4.92693,4.92692 -0.49269,9.36115 -5.41961,4.43423 -16.25883,15.27346 -13.79538,19.21499 2.46346,3.94155 4.43424,7.39039 5.9123,7.39039 1.47808,0 -1.97077,7.39038 1.97078,7.88307 3.94154,0.4927 9.85384,0.4927 12.80999,2.95616 2.95616,2.46345 5.41962,15.76615 4.43424,21.67846 -0.98539,5.9123 -9.85385,9.85384 -7.39039,16.25884 2.46347,6.405 5.91231,7.39038 5.91231,7.39038 0,0 -9.85385,4.43423 -9.85385,8.37577 0,3.94153 -2.46345,12.81 0.49269,16.75154 2.95616,3.94153 0.98539,13.79538 1.47808,19.70768 0.49269,5.91231 4.92692,11.33193 9.85385,15.27346 4.92692,3.94153 0,1.97077 0.49269,5.41961 0.49268,3.44885 2.46347,2.95616 3.94153,4.92693 1.47808,1.97076 0.4927,2.95615 -0.49269,5.41961 -0.98537,2.46347 -1.47808,13.30269 1.97077,18.7223 3.44884,5.41962 6.405,13.3027 4.43423,19.7077 -1.97076,6.40499 -2.46346,13.30268 0.49269,19.215 2.95616,5.9123 1.47808,8.37576 8.37577,11.33191 6.89769,2.95616 18.22962,2.95616 22.66384,-0.98538 4.43424,-3.94155 15.27346,-13.30269 14.78077,-19.21499 -0.4927,-5.91232 -2.46346,-37.9373 -6.89769,-39.90808 -4.43423,-1.97077 -10.83923,-6.89769 -9.36116,-13.79539 1.47808,-6.89769 12.81001,-17.73691 12.31731,-22.17113 -0.49269,-4.43424 -2.46346,-16.75154 -3.94154,-20.20039 -1.47808,-3.44884 3.44885,-1.47808 0.49269,-10.34653 -2.95614,-8.86846 -9.36114,-7.88309 -7.88307,-15.27347 1.47808,-7.39037 4.43423,-10.34653 0,-13.79538 -4.43423,-3.44884 -9.36116,0 -11.82461,-2.95615 -2.46346,-2.95615 -0.49269,-10.83923 2.95616,-14.28808 3.44884,-3.44884 0,-7.88308 -1.47808,-10.83922 -1.47808,-2.95616 4.92692,0.98538 4.43422,-8.86846 -0.49269,-9.85385 -2.95614,-18.7223 -6.40499,-19.21501 -3.44884,-0.49268 -6.405,-2.95614 -6.405,-2.95614 0.49269,-5.41961 5.9123,-10.83924 -0.49269,-13.79538 -6.405,-2.95616 -13.79538,-5.91232 -11.33193,-8.86846 2.46347,-2.95616 1.97077,-12.31732 0.98539,-14.28808 -0.98539,-1.97077 -1.36344,-1.9542 -1.36344,-1.9542 0,0 -1.59271,0.96882 -0.60732,-3.9581 0.98537,-4.92693 -2.95616,-9.85385 -5.91232,-10.83923 -2.95616,-0.98539 -14.78076,-8.86847 -10.34653,-10.83924 4.43423,-1.97076 -0.49269,-3.94153 -0.49269,-3.94153 z"
       id="path8400"
       inkscape:connector-curvature="0"
       sodipodi:nodetypes="cssssssssssssssscssssssssssssssssssssssssscssscsssc" />
    <path
       style="color:#000000;fill:#666666;fill-opacity:1;fill-rule:nonzero;stroke:none;stroke-width:1;marker:none;visibility:visible;display:inline;overflow:visible;enable-background:accumulate"
       d="m 309.47029,901.39264 c 0,0 23.64923,-41.87883 26.60538,-45.82036 2.95616,-3.94155 -1.97076,-12.31731 -3.94153,-17.24423 -1.97078,-4.92693 11.8246,-23.64923 11.8246,-23.64923 l -7.88307,-13.79538 c 0,0 -3.94153,-1.47808 -3.94153,-4.43424 0,-2.95614 6.40499,-2.95614 8.37575,-2.95614 1.97079,0 5.41963,5.9123 5.41963,0.49269 0,-5.41962 -0.98539,-17.73692 -0.98539,-17.73692 0,0 -1.97077,-2.46347 -4.92692,-2.46347 -2.95616,0 0.98539,-3.44884 0,-5.9123 -0.98538,-2.46347 -7.39038,-5.41961 -10.83923,-5.41961 -3.44884,0 -8.86846,1.97076 -8.86846,1.97076 0,0 -2.46347,-4.92692 0.98538,-9.36116 3.44885,-4.43422 0.98539,-11.8246 1.47808,-15.76614 0.49269,-3.94154 -2.46346,-4.92693 2.95616,-10.83923 5.41961,-5.9123 5.41961,-6.405 5.9123,-10.34654 0.4927,-3.94153 0.98539,-7.88308 -2.95615,-8.86845 -3.94154,-0.98539 -7.39039,-1.97077 -4.43423,-7.88308 2.95615,-5.91231 0.49269,-7.39038 5.9123,-13.79539 5.41962,-6.40499 2.46347,-10.83922 5.41962,-14.78076 2.95615,-3.94154 4.43423,-0.98539 10.34654,-2.46346 5.9123,-1.47808 0,-2.46346 2.46346,-8.37577 2.46345,-5.9123 -2.46346,-4.92691 1.47807,-12.81 3.94154,-7.88308 5.41962,-6.405 7.39038,-8.86845 1.97077,-2.46347 2.46347,-1.47808 -2.46345,-10.34654 -4.92693,-8.86846 1.97077,-19.7077 8.37577,-20.69307 6.40499,-0.98539 9.85383,-0.49269 9.36114,-3.44885 -0.49268,-2.95616 -4.43423,-3.44884 -7.88308,-8.86846 -3.44884,-5.41961 3.94155,-8.86845 4.43424,-13.79538 0.49269,-4.92692 -5.41961,0.98538 0.49269,-7.88308 5.91231,-8.86846 9.36116,-9.36115 12.81,-7.88307 3.44885,1.47807 5.41962,4.43422 9.36115,6.89769 3.94155,2.46346 6.89769,0.49269 7.88308,5.41962 0.98538,4.92692 -1.97077,11.33191 -4.92692,14.28807 -2.95616,2.95615 -4.92693,7.88308 -4.92693,9.85384 0,1.97077 -3.44884,7.88307 -6.89769,13.79539 -3.44884,5.9123 -6.405,10.83922 -4.43423,13.79538 1.97078,2.95614 7.88308,-2.95616 9.36116,-0.98539 1.47807,1.97077 -5.91232,17.73691 -4.43424,20.69307 1.47808,2.95616 5.41961,-1.97077 5.91231,4.92693 0.49269,6.89769 -2.46347,18.7223 -1.97076,21.67846 0.49269,2.95614 2.95614,1.97077 1.47806,7.88307 -1.47806,5.91231 -8.86846,12.81 -6.40499,20.69307 2.46346,7.88308 5.9123,7.88308 6.40499,18.22962 0.4927,10.34653 -0.98537,13.79538 -2.95614,23.15653 -1.97077,9.36116 -6.89769,11.33192 0,15.27346 6.89769,3.94153 8.37577,4.92692 7.39038,9.85384 -0.98539,4.92693 -3.44885,10.83923 1.97076,20.69308 5.41962,9.85383 10.34654,11.82461 12.81001,16.75152 2.46346,4.92693 0.49269,9.36116 -0.4927,20.20039 -0.98538,10.83922 1.47808,13.30269 -3.94154,17.73691 -5.41961,4.43424 -8.37577,13.3027 -10.34653,20.20039 -1.97077,6.89769 -0.98539,9.36116 -1.47808,15.27346 -0.49269,5.9123 -6.89769,13.79538 -7.88307,20.20038 -0.98539,6.40499 3.44885,0.98538 -1.97078,9.36115 -5.41961,8.37577 -2.95614,13.30269 -12.3173,13.79538 -9.36115,0.49269 -10.83923,-1.97077 -17.73692,-3.44884 -6.89769,-1.47808 8.86846,-1.97077 -11.33193,2.46346 -20.20037,4.43423 -25.61998,8.86846 -27.09806,-1.47807 -1.47808,-10.34654 -6.89769,-17.73693 -3.94154,-23.15655 z"
       id="path8402"
       inkscape:connector-curvature="0" />
    <path
       inkscape:connector-curvature="0"
       style="color:#000000;fill:#808080;fill-opacity:1;fill-rule:nonzero;stroke:none;stroke-width:10;marker:none;visibility:visible;display:inline;overflow:visible;enable-background:accumulate"
       d="m 387.6667,578.52449 c -3.48385,1.04515 -7.28568,0.0186 -7.28568,2.4573 0,2.43871 1.75003,4.17472 3.49195,4.8715 1.74193,0.69676 1.36444,2.79517 -1.42264,3.49195 -2.7871,0.69678 -2.07391,-3.49435 -5.90615,1.03466 -3.83225,4.52902 -6.62043,6.28364 -4.18173,7.32879 2.43871,1.04517 2.7987,0.66876 3.14707,2.75908 0.34839,2.09032 1.02765,6.27315 1.72443,8.36345 0.69676,2.09032 -2.45971,7.67608 2.0693,3.14707 4.52903,-4.52902 8.02558,-10.10648 7.3288,-12.54517 -0.69676,-2.43871 -2.06121,-0.70138 1.42265,-3.83685 3.48386,-3.13548 4.85048,-2.41528 6.9408,-6.59591 2.09032,-4.18064 4.52202,-5.93876 0.68977,-6.98391 -3.83225,-1.04517 -8.01857,-3.49196 -8.01857,-3.49196 z m -14.26959,37.63553 c -3.13549,0.69676 -3.47445,0.33787 -5.21638,1.03465 -1.74193,0.69678 -4.18872,0.69087 -3.49196,4.87149 0.69678,4.18064 3.85435,4.53822 2.11242,7.67368 -1.74193,3.13549 -3.48146,4.20383 -4.52661,6.29415 -1.04517,2.09032 -3.83225,3.10396 0,3.10396 3.83223,0 8.70134,-0.35298 9.3981,-3.83684 0.69678,-3.48386 2.09491,-5.19887 3.83684,-6.9408 1.74195,-1.74193 3.44885,-0.69787 3.44885,-4.18173 0,-3.48386 -5.56126,-8.01856 -5.56126,-8.01856 z m 4.56972,19.83086 c -1.20091,0.12319 -2.15247,0.86079 -2.45731,3.14707 -0.69676,5.22579 2.4166,6.29414 -2.11241,6.29414 -4.52903,0 -6.25104,1.37954 -6.25104,1.37954 -2.09031,0 -9.4342,0.70488 -10.13098,3.49196 -0.69676,2.78709 -2.09032,4.16421 0,5.90614 2.09032,1.74193 9.08473,1.77913 5.94926,4.91461 -3.13547,3.13547 -4.9076,2.77417 -5.60438,5.56126 -0.69676,2.78708 -3.12847,5.21288 -0.68976,5.56127 2.43869,0.34837 6.28014,-0.32978 7.67368,2.4573 1.39355,2.78709 6.25103,4.18172 6.25103,4.18172 0,0 0.004,0.32738 -0.34489,2.06931 -0.34838,1.74193 -3.82283,0.3554 -5.21637,-0.68977 -1.39354,-1.04515 -10.11699,-5.56126 -11.51053,-5.56126 -1.39354,0 -3.11905,-0.35189 -5.90614,0.34488 -2.78709,0.69678 -6.94781,-0.69568 -6.25104,4.18173 0.69677,4.8774 4.86799,4.15372 5.21638,6.9408 0.34839,2.78709 -2.4293,1.77563 -5.21638,5.25949 -2.78709,3.48386 -5.24197,2.0739 -6.98391,5.90615 -1.74193,3.83224 -8.38096,6.95939 -6.63903,9.3981 1.74193,2.43871 0.3856,1.75003 4.91461,3.49196 4.52902,1.74193 7.30319,1.39464 5.56126,4.18172 -1.74193,2.7871 -7.65399,3.14357 -1.03465,3.49196 6.61933,0.34839 5.20697,-3.13898 10.43276,0.34488 5.2258,3.48386 6.99333,4.51611 1.76753,5.56127 -5.22579,1.04515 -15.71785,1.42023 -17.45978,5.94925 -1.74193,4.52901 -0.67226,2.77067 -2.41419,5.90615 -1.74193,3.13547 -2.79869,-0.0124 -3.14707,5.56127 -0.34839,5.57417 2.78117,6.26962 4.87149,8.70833 2.09032,2.43871 3.12846,3.48144 0.68977,4.52661 -2.43871,1.04515 -4.50101,0.36348 -2.75908,2.80219 1.74193,2.4387 2.78118,1.40863 4.8715,2.80218 2.09031,1.39354 8.34594,6.24052 10.08787,7.28569 1.74193,1.04515 0.72347,4.18763 5.94926,-0.68977 5.22579,-4.8774 3.79832,-2.4549 7.63057,-6.98391 3.83225,-4.52902 5.93175,-6.23943 7.67368,-3.10396 1.74193,3.13548 4.88199,1.04275 3.83684,4.52661 -1.04516,3.48386 -4.17713,1.39463 -0.34488,4.18172 2.02601,1.47346 4.62981,2.72649 6.89769,3.70751 -7.97755,-0.87932 -15.73326,-0.48833 -18.06333,1.50887 -2.43871,2.09032 -5.88864,6.28715 -7.63057,6.98391 -1.74193,0.69678 -5.23038,4.50911 -3.83684,6.25104 1.39354,1.74193 12.54866,8.72342 12.20029,11.51052 -0.34839,2.78708 2.43869,2.77417 0,5.56126 -2.43871,2.78708 -7.00252,1.76403 -9.44122,2.11242 -2.4387,0.34839 -5.57176,1.70341 -4.52661,3.79373 1.04516,2.09032 8.39256,3.84494 9.7861,7.3288 1.39354,3.48385 3.13547,2.77767 0,5.21638 -3.13548,2.4387 -10.13098,-0.3473 -10.13098,4.18172 0,4.52901 -1.02765,9.75458 -1.72442,12.89006 -0.69677,3.13547 -4.52661,3.14707 -4.52661,3.14707 0,0 -0.028,2.09141 2.75907,4.18173 2.7871,2.09031 5.94926,-0.003 5.94926,4.52661 0,4.52902 1.02656,6.62502 -2.4573,8.01856 -3.48386,1.39354 -5.21988,-0.70967 -4.87149,5.56127 0.34838,6.27095 3.12956,10.10997 4.87149,12.20029 1.74193,2.09031 2.45972,1.37954 -2.06931,1.37954 -4.52901,0 -5.95035,-2.07981 -10.13098,-1.03466 -4.18064,1.04517 -6.58542,-1.38546 -7.63057,3.49196 -0.011,0.0505 -0.0331,0.0821 -0.0432,0.12926 -0.25746,-0.19639 -0.586,-0.41468 -1.07777,-0.73288 -5.92256,-3.83225 -6.58892,-6.61803 -7.28568,-8.70833 -0.60969,-1.82904 -4.21915,-4.74455 -3.87995,-4.74217 -2.1576,-0.97912 -6.44163,-2.45446 -8.967,-0.56043 -4.18064,3.13548 -6.26504,0.69677 -4.8715,0 1.39355,-0.69677 10.37564,-5.47505 11.76919,-5.47505 1.39354,0 -0.67117,3.48388 1.76753,0 2.4387,-3.48385 -1.06966,-10.12397 2.41419,-10.82075 3.48388,-0.69676 2.46891,0.70728 5.60438,-1.03465 3.13548,-1.74193 1.07776,-9.18255 1.07776,-9.18255 0,0 2.41769,-2.76718 2.06931,-6.25104 -0.34839,-3.48385 1.41806,-10.09246 -2.41419,-13.92471 -3.83225,-3.83225 -3.41625,-4.76426 -2.37108,-6.85458 1.04515,-2.09032 2.4538,-2.09491 2.80218,-3.83684 0.34839,-1.74193 -0.0257,-6.97342 -1.76753,-8.01857 -1.74193,-1.04516 -8.34134,-5.91424 -6.25103,-9.3981 2.09032,-3.48386 2.0658,-2.41528 2.41419,-6.59592 0.34839,-4.18063 1.05917,-8.36345 -1.37954,-8.36345 -2.4387,0 -8.00807,3.44425 -9.05322,-0.38799 -1.04516,-3.83225 -4.16313,-2.40829 -1.72442,-7.28569 2.43869,-4.87741 1.82465,-15.42658 0.43111,-16.12335 -1.39354,-0.69678 -5.42142,0.31227 -6.46659,-0.73288 -1.04515,-1.04517 -0.38799,-3.31952 -0.38799,-3.31952 0,0 3.82808,1.3732 1.6382,-1.33642 0,0 3.12313,-0.44573 5.51815,-0.90533 5.51868,-1.05901 2.0577,-18.48041 -1.07776,-19.87397 -3.13549,-1.39354 1.6441,6.79637 -3.2333,4.00929 -4.87741,-2.7871 -0.409,-2.4724 1.68131,-5.25949 2.09032,-2.78709 1.37954,-5.56127 1.37954,-5.56127 0,0 -0.35297,0.35188 -3.83684,-0.34488 -3.48386,-0.69678 -8.90529,-0.63264 -6.46658,-2.0262 2.43869,-1.39354 2.8383,-2.98273 3.53506,-6.46658 1.49373,-15.54398 -6.4348,-2.15813 -7.15635,-2.45731 -4.18363,-1.7347 -0.98214,3.13898 -6.20792,-0.34488 -5.22579,-3.48386 -5.20937,-5.2549 -5.90615,-1.42265 -0.69676,3.83225 2.75448,4.875 -1.07776,4.52661 -3.83225,-0.34837 -2.09492,-3.48037 -3.83685,-0.34488 -1.74192,3.13546 -8.70833,2.80218 -8.70833,2.80218 0,0 -1.36203,-0.004 -3.10396,0.34489 -1.74193,0.34839 -4.20272,4.86799 -2.11242,5.21638 2.09032,0.34838 7.68768,0.0291 6.29414,1.42264 -1.39354,1.39356 -2.81728,2.75908 -5.60437,2.75908 -2.78708,0 -5.55076,-4.50801 -6.59592,-2.06931 -1.04516,2.43871 -3.12847,4.86449 -0.68977,5.56127 2.43871,0.69677 6.94081,1.03465 6.94081,1.03465 l 9.05322,-0.68977 c 0,0 1.74652,-3.84034 3.83684,-3.49195 2.09031,0.34837 3.48144,1.39813 4.52661,3.83684 1.04515,2.43869 1.40405,4.90759 -1.03466,5.60437 -2.43869,0.69676 -1.76163,4.85639 -6.63903,2.06931 -4.87739,-2.7871 -7.63057,-2.80219 -7.63057,-2.80219 0,0 -5.59978,1.41915 -1.76753,1.76753 3.83225,0.34839 9.08932,0.70488 9.7861,3.49196 0.69676,2.78709 -0.3729,3.80882 2.41419,6.59592 2.78708,2.78708 2.77767,2.81377 5.21638,5.94926 2.43869,3.13546 4.21083,2.42228 5.60437,5.90614 1.39354,3.48386 6.26395,3.82633 0.68977,4.8715 -5.57417,1.04515 -6.62152,-1.40756 -8.36345,1.37954 -1.74193,2.78708 -4.90301,2.43629 -1.76753,4.52661 3.13547,2.0903 4.22134,1.75703 4.56972,2.80218 0.34839,1.04517 5.2223,3.14007 0.34488,3.83684 -4.87739,0.69678 -5.93876,-0.71428 -6.98391,1.72443 -1.04516,2.4387 -1.40404,2.4433 1.03466,3.83684 2.4387,1.39354 3.15408,-2.06472 2.4573,1.76753 -0.69678,3.83225 -1.04515,4.17822 0,4.52661 1.04515,0.34839 1.03574,2.4317 5.21638,0.68977 4.18063,-1.74193 5.93175,-2.77658 7.67368,-1.03466 1.74193,1.74193 4.51851,7.64808 1.03465,5.90615 -3.48387,-1.74193 -4.8866,-2.0693 -7.67368,-2.0693 -2.78709,0 -4.87149,0.31688 -4.87149,3.10396 0,2.78709 -1.03925,1.76052 -4.8715,2.4573 -3.83224,0.69676 -4.86098,-1.41455 -5.90615,2.06931 -1.04515,3.48385 -1.39354,5.25248 0,5.94925 1.39354,0.69677 5.55076,-0.028 6.59592,2.75908 1.04515,2.7871 -0.015,3.86245 -2.80219,5.60437 -2.78708,1.74193 -4.83888,4.16422 -3.79373,5.90615 1.04517,1.74193 2.4398,2.80219 4.18173,2.80219 1.74193,0 5.91775,-3.13547 9.05322,0 3.13547,3.13548 5.90615,3.83684 5.90615,3.83684 0,0 -1.04976,2.05529 -3.83684,3.44885 -2.7871,1.39354 -6.28365,-0.34029 -7.3288,3.49195 -1.04517,3.83225 1.05325,8.73745 3.49196,10.13099 2.4387,1.39355 8.04658,-1.42156 5.25948,2.75907 -2.78708,4.18064 -4.5371,1.73603 -3.49195,4.8715 1.04515,3.13547 4.16772,4.21433 5.56126,5.25949 1.39354,1.04516 -2.10891,10.41875 -2.4573,11.81229 -0.34838,1.39354 -0.68627,2.4654 -1.03465,5.94926 -0.34839,3.48386 2.09841,3.47445 3.49195,5.21638 1.39354,1.74193 3.12147,3.12606 1.37954,5.21638 -1.74193,2.09032 -1.39704,4.8901 0.34488,7.32879 1.74193,2.43871 3.15866,2.7952 6.29415,3.49196 3.13547,0.69678 3.48845,3.82633 3.83684,4.87149 0.34837,1.04516 1.36444,3.47796 -1.42265,4.8715 -2.78708,1.39355 -3.82634,2.78818 -4.87149,4.18172 -1.04516,1.39354 -5.23389,4.89009 -3.49196,7.3288 1.74193,2.43871 12.89006,10.43276 12.89006,10.43276 0,0 1.77563,4.17472 5.25949,4.87149 3.40707,0.68143 8.14966,-0.63165 11.94163,-0.68977 l 0.94843,5.21638 50.87047,-8.36345 c 0,0 16.70589,-6.9594 18.79621,-9.3981 2.09032,-2.43871 6.98391,-12.86905 6.98391,-14.95937 0,-0.59101 -0.33337,-1.94942 -0.73288,-3.49196 2.78708,0 5.25949,-4.52661 5.25949,-4.52661 0,0 -0.3729,-0.007 2.41419,0.68977 2.78708,0.69678 1.76864,1.75245 5.94926,-1.03465 4.18064,-2.78708 1.02875,-4.87149 5.90615,-4.87149 4.87741,0 4.18982,1.70232 7.67368,-0.388 3.48386,-2.09032 4.49751,-3.11905 3.10396,-5.90615 -1.39354,-2.78708 -4.50801,-4.16071 -2.06931,-6.25103 2.4387,-2.09032 4.8936,-3.14707 6.98392,-3.14707 2.09031,0 3.12606,1.38304 5.21637,1.03465 2.09032,-0.34839 3.47796,1.75244 4.8715,-1.03465 1.39355,-2.78708 4.18523,-2.0844 3.83684,-4.8715 -0.34838,-2.78708 -0.71888,-2.78817 -2.11242,-4.18172 -1.39355,-1.39354 -5.20828,-1.04975 -1.72442,-3.83684 3.48387,-2.78708 3.12257,-2.09491 5.56126,-3.83684 2.43871,-1.74193 3.85084,-2.10191 2.4573,-3.14707 -1.39354,-1.04516 -3.15757,3.15998 -2.11241,-2.4142 1.04516,-5.57417 2.4433,-7.32879 3.83684,-7.32879 1.39355,0 -0.32629,1.37954 2.11241,1.37954 2.43871,0 1.73602,1.40755 4.8715,-1.37954 3.13547,-2.78708 6.24753,-3.81934 6.59592,-5.56127 0.34838,-1.74192 0.34488,-3.14707 0.34488,-3.14707 -1.39354,0.34839 -2.78118,3.48495 -4.87149,4.18173 -2.09031,0.69676 -4.5021,-0.34489 -6.94081,-0.34489 -2.4387,0 -2.4468,-0.71778 -3.49195,2.06931 -1.04515,2.78708 -4.16772,4.56271 -5.56126,5.25949 -1.39355,0.69678 -2.81971,2.40369 -1.07777,3.44885 1.74193,1.04516 2.0903,4.21782 0,4.9146 -2.09032,0.69676 -4.17472,0.69436 -4.87149,4.52661 -0.69677,3.83225 1.73383,5.56126 -3.49196,5.56126 -5.22579,0 -2.0704,-4.18414 -6.25103,0.34489 -4.18062,4.52902 -5.93174,4.16772 -7.67368,5.56126 -1.74193,1.39354 -5.54726,2.80918 -6.9408,2.11242 -1.39355,-0.69678 0.67467,-0.3775 -2.11242,-1.42265 -2.78708,-1.04516 -3.46744,-4.51851 -5.90615,-1.03465 -2.43869,3.48386 -5.92474,6.63903 -8.36345,6.63903 -2.43871,0 -3.15056,0.34947 -2.80219,4.18172 0.17683,1.94514 -0.61491,4.93381 -1.6382,7.80301 -0.74728,-1.58169 -6.98666,-14.85371 -5.34571,-16.16646 1.74193,-1.39354 1.76162,-1.39463 6.63903,-4.18173 4.8774,-2.78708 6.25103,-2.0809 6.25103,-5.21637 0,-3.13547 -3.12606,-6.98041 -5.21638,-7.3288 -2.09032,-0.34839 -1.36203,-6.63903 -3.10396,-6.63903 -1.74193,0 -3.17268,0.34138 -4.9146,0.68977 -1.74193,0.34839 1.76753,-4.87149 1.76753,-4.87149 0,0 2.76367,-3.47687 6.59592,-0.68977 3.83224,2.78708 1.41673,6.97932 6.29414,3.14707 4.8774,-3.83225 6.24753,-7.30079 6.59592,-10.08787 0.34838,-2.7871 0.028,-8.36345 -2.75908,-8.36345 -2.78708,0 -2.80219,-6.98392 -2.80219,-6.98392 0,0 0.0141,-11.16563 -1.37954,-11.16563 -1.39355,0 0.3217,4.8844 -5.94925,-0.68977 -6.27096,-5.57418 -1.05218,-6.59592 0.68976,-6.59592 1.74193,0 3.50947,-5.93875 1.76754,-6.98391 -1.74193,-1.04515 -6.27313,-6.59592 -8.36345,-6.59592 -2.09032,0 -1.74894,-3.14357 0.68977,-3.49196 2.43869,-0.34838 4.17471,3.10987 4.87149,-1.76753 0.69678,-4.87741 -0.68977,-11.46741 -0.68977,-11.46741 0,0 -5.92474,-5.25949 -8.36345,-5.25949 1.18766,-0.13997 4.12001,-0.93273 3.40574,-4.74216 -1.04517,-5.57418 0.16292,-10.81026 -3.83684,-11.85541 -2.56705,-0.67077 5.93175,-0.35647 7.67368,-3.49195 1.74193,-3.13547 0.0291,-4.53822 1.42265,-7.67369 1.39354,-3.13548 -0.47422,-10.73453 -0.47422,-10.73453 0,0 -4.37276,-15.13181 -6.81147,-15.13181 -2.43871,0 3.41623,-2.43979 2.37108,-4.18172 -1.04516,-1.74193 -5.55316,-4.55572 -2.06931,-5.94926 3.48386,-1.39355 10.36232,-2.5443 6.25104,-4.87149 -3.43013,-1.94165 0.76789,-5.22799 -2.71597,-8.36346 -3.48386,-3.13546 -1.2141,-7.86473 -0.51733,-10.30342 0.69677,-2.43871 3.82635,-2.07741 4.8715,-5.56126 1.04516,-3.48386 1.73142,-7.68878 1.03465,-10.47587 -0.69678,-2.78708 -1.40165,-0.68035 -3.49195,-5.90615 -2.09032,-5.22579 -5.73371,-5.6882 -5.73371,-10.21721 0,-4.52902 1.74892,-7.32879 -0.68977,-7.32879 -1.37177,0 -3.28438,-0.89134 -4.82838,-0.73288 z m 61.99299,16.38201 c -1.74192,0.34839 -2.4468,0.35299 -3.49195,3.83684 -1.04517,3.48386 2.09382,2.10301 -0.34489,7.3288 -2.4387,5.22579 -3.82983,3.14467 -4.52661,7.67368 -0.69676,4.52903 -1.42615,6.27664 -1.07776,8.01857 0.34839,1.74193 3.49196,1.03465 3.49196,1.03465 0,0 3.49546,-0.004 3.14707,-3.83684 -0.34838,-3.83225 -1.04866,-4.87959 0.34488,-8.36345 1.39356,-3.48386 1.37605,-1.02875 1.72442,-5.90615 0.34839,-4.8774 0.0361,-4.54522 0.73288,-6.98391 0.69678,-2.43871 0,-2.80219 0,-2.80219 z m -174.46847,6.25104 c -1.66215,-0.15174 -1.864,2.59709 -2.19864,5.25949 -0.69676,4.87739 5.25949,6.98391 5.25949,6.98391 l -1.42265,3.14707 c 0,0 -1.39704,1.35153 0.34489,4.13861 1.74193,2.7871 3.83477,5.88611 0.34488,5.60438 -0.71973,-0.0581 -5.88054,-4.18763 -4.13861,0.68977 1.74193,4.8774 4.50451,6.9769 2.41419,7.67368 -2.09032,0.69678 -1.37954,3.49195 -1.37954,3.49195 0,0 1.36203,2.4142 3.10396,2.4142 1.74193,0 1.05676,-0.33329 3.14707,2.80218 2.09032,3.13549 3.51056,2.4317 5.94926,0.68977 2.43871,-1.74193 7.2811,-4.51261 3.44885,-5.90615 -3.83225,-1.39354 -8.01397,-3.13656 -4.18173,-4.18172 3.83225,-1.04515 4.9111,-1.40164 5.25949,-3.49196 0.34839,-2.09031 1.73843,-5.24198 0.34489,-6.98391 -1.39356,-1.74193 -4.20624,-3.12956 -1.76754,-4.87149 2.4387,-1.74195 0.0571,-4.38328 -1.33642,-5.77682 -1.39354,-1.39355 -1.79665,-3.96617 -3.19019,-3.96617 -1.39354,0 -2.42819,2.76498 -1.03465,-2.11242 1.04517,-3.65807 -0.10484,-2.01962 -0.68977,-1.76753 -2.39971,1.03439 -3.71554,-0.28096 -4.95771,-1.55198 -1.51427,-1.54943 -2.56399,-2.2159 -3.31952,-2.28486 z m -114.84655,3.83684 c -0.95535,0.0138 -1.84588,0.12678 -2.62975,0.38799 -4.18063,1.39354 -5.60328,3.46395 -1.42264,6.25103 4.18063,2.7871 2.1135,3.49895 6.29414,2.80219 4.18062,-0.69678 9.05322,6.25103 9.05322,6.25103 l -7.67368,4.91461 c 0,0 -3.48386,6.96991 0,8.36345 3.48385,1.39355 7.66668,2.0844 8.36345,4.87149 0.69677,2.78708 -6.25104,7.63057 -6.25104,7.63057 l 2.06931,4.91461 7.67368,4.87149 c 0,0 4.18872,-0.68868 3.49196,3.49196 -0.69678,4.18062 -5.59036,8.35644 -6.98391,9.05322 -1.39354,0.69676 -6.25104,0.70486 -6.25104,3.49195 0,2.78709 4.13862,5.56127 4.13862,5.56127 l 2.11242,3.49195 2.0693,12.54518 -5.56126,5.56126 7.67368,1.37954 c 0,0 9.73709,-6.24402 14.61448,-6.9408 4.87742,-0.69676 2.11242,-8.36345 2.11242,-8.36345 l 7.67368,-2.11242 c 0,0 -0.028,5.59847 2.75908,10.47587 2.78708,4.87741 2.11131,4.15371 -2.06931,6.9408 -4.18063,2.78708 -3.51296,4.86449 -1.42265,5.56126 2.09032,0.69677 9.08934,8.37855 9.7861,11.16564 0.69678,2.78708 3.49085,3.47796 -0.68977,4.8715 -4.18063,1.39354 -6.98391,-0.68868 -6.98391,3.49195 0,4.18064 4.8645,8.34244 5.56127,10.43276 0.69677,2.0903 -0.68977,13.96782 -0.68977,13.96782 0,0 1.38763,0.69787 4.87149,4.18173 3.48386,3.48386 2.78927,-2.09141 8.36345,-4.18173 5.57418,-2.09031 6.98391,1.38063 6.98391,5.56127 0,4.18063 0.69677,-2.8 0,5.56126 -0.69678,8.36127 2.0634,15.33336 6.9408,16.7269 4.87742,1.39354 0.72698,6.28014 5.60438,7.67368 4.87741,1.39354 6.94189,2.09842 11.12252,3.49196 4.18064,1.39354 7.68069,1.36661 6.98392,6.9408 -0.69677,5.57418 -0.71888,2.79628 -2.11242,7.67368 -1.39356,4.87741 -2.09032,6.28824 0,11.16564 2.0903,4.87737 7.67368,9.04731 7.67368,13.92471 0,4.8774 -2.08331,7.65267 -0.68977,9.74299 1.39354,2.09032 7.67368,8.36345 7.67368,8.36345 0,0 2.76017,3.47685 6.9408,0.68977 4.18064,-2.78709 12.55217,-16.69888 11.85541,-19.48598 -0.69678,-2.78708 -0.69896,-8.37854 -8.36345,-11.16563 -7.66449,-2.78709 -9.05322,-11.12253 -9.05322,-11.12253 0,0 1.42265,-2.10651 1.42265,-6.98391 0,-4.8774 -10.47587,-16.7269 -10.47587,-16.7269 0,0 -15.33926,-6.26022 -11.85541,-13.92472 3.48386,-7.66448 1.40164,-7.65376 3.49196,-13.92471 2.09032,-6.27095 0.71779,-12.53817 -2.06931,-13.23495 -2.78708,-0.69677 -4.18281,-6.28123 -8.36345,-11.8554 -4.18063,-5.57418 -6.30115,-4.86559 -5.60437,-9.74299 0.69678,-4.87741 6.28606,-4.9087 2.80219,-9.7861 -3.48386,-4.87741 -1.38063,-4.85048 -5.56127,-6.9408 -4.18062,-2.09031 -4.8785,-4.9087 -4.18172,-9.7861 0.69676,-4.87741 2.77199,-6.24402 -2.80219,-6.9408 -2.2906,-0.28633 -4.92365,-1.49515 -7.24258,-2.8453 0.87318,1.71902 1.75491,3.68755 2.06931,5.25949 0.69676,3.48386 -1.04275,2.10541 -4.52661,2.80219 -3.48386,0.69676 -3.47795,3.82984 -4.87149,4.52661 0,0 1.27302,3.55131 2.41419,6.38036 0.9647,0.61508 1.65353,1.41875 1.76753,2.67286 0.16432,1.80759 -0.7487,-0.14709 -1.76753,-2.67286 -1.98317,-1.26443 -5.1763,-1.74629 -7.28569,-3.62129 -3.13546,-2.78709 -0.68976,-2.41528 -0.68976,-6.59591 0,-4.18063 1.72551,-3.83684 5.90614,-3.83684 4.18062,0 2.0984,-0.35297 3.49196,-3.83685 0.45828,-1.14572 0.74201,-1.99761 0.94843,-2.71596 -2.02025,-1.36003 -3.44884,-2.50041 -3.44884,-2.50041 l 1.37953,-7.67369 c 1.39356,-7.66449 -2.76717,-11.83439 -6.25103,-13.92471 -3.48386,-2.09032 -0.71297,-2.09141 -6.98391,-4.18172 -6.27095,-2.09032 -4.18172,-6.25104 -4.18172,-6.25104 l -2.75908,-6.29414 c 0,0 -2.81619,-4.8866 -1.42265,-7.67368 1.39354,-2.7871 9.05803,-1.38764 0,-4.8715 -9.05803,-3.48385 -11.13762,-6.26612 -13.92471,-9.05321 -2.78708,-2.78709 -6.97692,-5.56937 -7.67369,-9.05322 -0.69677,-3.48386 -4.18172,-3.49196 -4.18172,-3.49196 0,0 -5.04275,-1.82503 -9.18255,-1.76753 z m 21.90017,42.20524 c 1.22479,0 3.94429,1.37954 6.1217,1.37954 3.48386,0 0.66876,2.0785 2.75907,9.74299 2.09032,7.66449 2.11242,2.78927 2.11242,8.36345 0,5.57418 -0.0141,2.11352 1.37954,6.29414 1.39356,4.18064 -3.49196,4.8715 -3.49196,4.8715 l -2.0693,-4.18173 -4.8715,-2.11242 3.49196,-10.43275 c 0,0 -3.51406,-7.67477 -5.60437,-11.85541 -0.78387,-1.56773 -0.56244,-2.06931 0.17244,-2.06931 z m 246.11823,10.90698 c -0.57361,0.14289 -0.7773,0.92742 -0.64666,3.01774 0.34839,5.57417 0.66067,5.21396 -0.73288,9.74299 -1.39354,4.52901 -3.44775,8.37285 0.73288,3.14707 4.18063,-5.22579 3.10155,-5.94576 7.63058,-6.29415 4.52901,-0.34838 1.76513,1.74544 6.29414,-0.34488 4.52902,-2.0903 5.91664,-1.04975 4.87149,-3.83684 -1.04516,-2.78708 -4.87149,-4.8715 -4.87149,-4.8715 -2.43869,0.69678 -2.45139,0.68977 -7.3288,0.68977 -3.04838,0 -4.99324,-1.48835 -5.94926,-1.2502 z m 6.63903,21.46906 -4.87149,3.83684 c -1.74193,0.34839 -2.77768,1.04275 -5.21638,4.52661 -2.43869,3.48387 -8.71884,3.84144 -7.67368,7.67368 1.04516,3.83225 4.87149,2.42229 4.87149,5.90615 0,3.48386 0.028,8.01156 -2.75908,8.70833 -2.78708,0.69677 -6.63902,3.49196 -6.63902,3.49196 l 1.72442,4.52661 3.14707,-2.75908 c 0,0 1.76403,0.32389 2.11242,2.4142 0.34839,2.09031 2.4352,9.4237 0.34488,11.16563 -2.09031,1.74195 -6.62853,3.83334 -7.67368,4.18173 -1.04516,0.34839 -1.37954,2.43979 -1.37954,4.18172 0,1.74193 -1.05916,1.73603 1.37954,4.8715 2.43871,3.13548 3.84735,3.11206 2.80219,6.59592 -1.04515,3.48385 -1.76054,7.65967 -2.4573,9.05321 -0.69678,1.39354 0.67575,3.86946 2.0693,4.91461 1.39354,1.04517 2.46081,3.11206 2.11242,6.59592 -0.34837,3.48385 -3.83684,14.26959 -3.83684,14.26959 l 3.83684,3.49196 c 0,0 9.05322,-12.87255 9.05322,-14.61448 0,-1.74193 2.4352,-12.88305 0.34489,-13.57983 -2.09031,-0.69676 -5.20129,-3.83335 -2.4142,-4.18173 2.78709,-0.34839 4.18173,-3.85193 4.18173,-6.63902 0,-2.78709 -0.0257,-7.65618 -1.76753,-9.39811 -1.74193,-1.74193 -0.68977,-5.56126 -0.68977,-5.56126 0,0 3.82634,3.46985 4.87149,1.37954 1.04517,-2.09031 4.55463,-2.77768 1.76753,-5.21638 -2.78708,-2.43869 -4.5557,-4.54521 -5.94925,-6.98391 -1.39354,-2.43871 -1.04516,-4.87259 0,-9.05322 1.04516,-4.18064 2.81619,-14.64009 1.42264,-16.38202 -1.39355,-1.74193 -2.4748,-3.81233 -0.73288,-6.25103 1.74193,-2.43871 3.51056,-4.89709 5.94926,-6.63903 2.43871,-1.74193 2.06931,-4.52661 2.06931,-4.52661 z m -51.34469,49.66338 3.70751,0 c 0,0 2.74436,1.3794 6.42348,2.75907 3.67913,1.37966 4.58431,1.82498 2.28486,2.28486 -2.29946,0.4599 -3.18992,-2.75947 -5.94926,1.37954 -2.75934,4.13902 1.8255,7.38623 -3.23329,7.84612 -5.0588,0.45989 -5.51789,-0.94843 -8.27723,-0.94843 -2.75934,0 -7.37191,0.94843 -7.37191,0.94843 0,0 0.94803,-8.76576 5.08705,-9.22566 4.13901,-0.45988 7.32879,-5.04393 7.32879,-5.04393 z m -68.20092,3.23329 c 1.35812,0.0647 1.89677,1.59488 2.93152,3.6644 1.37968,2.75934 4.10996,5.05799 3.19018,8.27723 -0.91978,3.21923 -1.8247,-0.44531 -5.04393,-2.28486 -3.21924,-1.83956 -3.23329,0.90532 -3.23329,0.90532 0,0 0.47434,5.07231 -0.90533,8.75144 -1.37967,3.67912 -2.75895,3.64994 -4.13861,4.56972 -1.37968,0.91978 -5.04394,2.32797 -5.04394,2.32797 l -6.46658,3.6644 1.85375,-1.85375 c 0,0 -1.85375,-3.20424 -1.85375,-6.42348 0,-3.21922 4.59783,-2.75894 11.0363,-4.13861 6.43847,-1.37966 -1.35076,-4.5981 -1.81064,-8.27723 -0.4599,-3.67912 1.37914,-1.82498 5.51815,-2.28486 0,0 -0.47448,-5.08692 2.28486,-6.46659 0.68984,-0.34492 1.2286,-0.45266 1.68131,-0.4311 z m -5.17326,78.63368 c 0.63235,-0.0144 1.1783,0 1.6382,0 l 7.84612,0 c 0,0 -0.93397,0.45962 -1.85375,2.75907 -0.91978,2.29946 -4.12402,3.67872 -6.42348,4.13862 -2.29944,0.45989 -4.59823,-2.74475 -6.89769,-2.28486 -2.29946,0.45989 -0.91964,3.21843 -1.37954,8.27723 -0.45988,5.05879 -3.70751,2.28486 -3.70751,2.28486 l 0.47422,-7.37191 c 0,0 2.77327,-5.97791 4.61283,-6.89769 1.37966,-0.68984 3.79355,-0.86221 5.6906,-0.90532 z m 23.40903,10.00165 c 0.01,-0.0124 0.0519,-0.011 0.12927,0 -0.006,0.0268 0.006,0.0589 0,0.0862 -0.10181,-0.0574 -0.13946,-0.0737 -0.12927,-0.0862 z"
       id="path8894" />
    <path
       style="color:#000000;fill:#e6e6e6;fill-opacity:1;fill-rule:nonzero;stroke:none;stroke-width:1;marker:none;visibility:visible;display:inline;overflow:visible;enable-background:accumulate"
       d="m 256.69233,910.19897 c 0,0 -9.05804,-11.14835 -9.75481,-14.63221 -0.69677,-3.48386 1.43894,-9.44758 -3.48799,-10.92564 -4.92692,-1.47808 -8.86846,-8.37577 -8.86846,-11.33193 0,-2.95616 -1.47807,-11.33192 -6.405,-12.3173 -4.92692,-0.98539 -8.86846,-7.88308 -11.82461,-7.39038 -2.95615,0.49269 -7.39038,-0.4927 -8.37576,-2.46347 -0.98539,-1.97077 -6.405,-12.3173 -8.37577,-15.27346 -1.97076,-2.95614 -11.82461,-10.34654 -15.27346,-12.80999 -3.44884,-2.46347 -2.95616,-4.43424 -6.89769,-4.92693 -3.94153,-0.49268 -8.37577,-0.49268 -9.85385,-1.97076 -1.47808,-1.47808 -0.98537,-4.92693 -4.43422,-5.41962 -3.44884,-0.4927 -10.83924,-2.46346 -12.31732,-3.44884 -1.47806,-0.98539 1.97078,-2.46347 -6.89769,-3.94155 -8.86846,-1.47806 -9.85383,5.41963 -12.80999,3.44885 -2.95616,-1.97077 -7.88308,-13.30268 -7.88308,-13.30268 0,0 -1.47807,3.94153 -5.41961,3.44884 -3.94154,-0.4927 -5.9123,-5.91231 -5.9123,-5.91231 l -3.94154,3.94155 c 0,0 -2.95615,-4.43424 -4.92692,-6.8977 -1.97077,-2.46346 -11.824618,-1.47807 -15.766152,-7.39039 -3.941547,-5.9123 -4.434235,-7.39038 -6.405002,-7.39038 -1.970767,0 -13.795383,4.43424 -14.780773,1.47808 -0.985377,-2.95616 0.492702,-7.88308 5.419612,-7.88308 4.926924,0 8.868472,4.43424 11.824616,4.92692 2.956157,0.49269 -1.478079,1.47808 3.941547,0.49269 5.419613,-0.98537 2.463456,0 8.375756,2.46347 5.912316,2.46346 4.926926,5.41961 6.897696,1.47808 1.97078,-3.94155 4.92692,0.98538 4.92692,0.98538 0,0 5.41961,-2.95615 8.37577,-0.49269 2.95616,2.46345 2.46347,5.9123 8.37577,6.405 5.9123,0.49269 3.94153,-2.95616 10.83922,-0.98539 6.8977,1.97077 2.46347,3.94153 6.40501,5.41961 3.94153,1.47808 -0.49269,0.98539 5.41961,1.97077 5.91231,0.98539 7.88308,8.86847 10.83922,11.33193 2.95616,2.46345 -1.97076,0 4.92693,2.46345 6.89769,2.46347 10.83924,5.41963 10.83924,5.41963 0,0 3.94153,0.49269 6.89769,1.47806 2.95614,0.98539 3.94153,6.40501 3.94153,6.40501 l 8.37577,0 c 0,0 2.46346,3.94153 5.41961,5.91231 2.95616,1.97077 1.97077,7.88307 7.39038,9.85383 5.41961,1.97077 8.86846,1.97077 9.85385,6.40501 0.98538,4.43423 0.49269,6.89769 3.94153,8.86845 3.44885,1.97077 -2.95615,-1.97076 6.89769,2.95616 9.85385,4.92693 16.75154,14.78076 17.24423,17.24423 0.49269,2.46345 -1.47808,0.98538 3.94154,5.41961 5.41962,4.43424 5.41962,0.49269 6.89769,8.86846 1.47808,8.37577 -4.43422,2.95616 2.46347,9.85385 6.89769,6.89769 5.9123,-0.49269 8.37577,9.85385 2.46345,10.34653 -3.44885,6.40499 3.94153,13.30268 7.39038,6.89769 9.36115,4.43423 6.89769,8.37577 -2.46345,3.94153 -4.43424,7.88308 -6.89769,5.91231 -2.46346,-1.97078 -4.43424,-6.405 -9.85385,-10.34654 -5.41961,-3.94154 -2.52335,-8.9306 -2.52335,-8.9306 z"
       id="path8425"
       inkscape:connector-curvature="0" />
    <path
       style="color:#000000;fill:#666666;fill-opacity:1;fill-rule:nonzero;stroke:none;stroke-width:10;marker:none;visibility:visible;display:inline;overflow:visible;enable-background:accumulate"
       d="m 286.13352,905.81697 c 0,0 5.97859,11.03737 9.19782,10.57749 3.21924,-0.4599 12.87693,-5.05879 12.87693,-5.05879 0,0 -0.91978,-7.35825 -1.37966,-9.65771 -0.4599,-2.29946 10.11759,-7.81815 10.11759,-7.81815 0,0 5.05879,-0.45988 4.59889,1.83958 -0.45988,2.29944 -4.13901,8.27803 -4.13901,8.27803 0,0 3.67913,2.29944 5.97859,1.83955 2.29944,-0.45989 15.17638,-5.97857 15.17638,-7.35824 0,-1.37968 -2.29946,-1.83956 1.37967,-5.5187 3.67912,-3.67911 5.97858,-6.43847 7.81814,-2.29945 1.83957,4.13901 -2.75934,6.43847 2.75935,10.57748 5.51868,4.13902 10.57747,-0.45988 11.95715,-2.29945 1.37967,-1.83956 3.21923,-3.21922 1.37967,-4.5989 -1.83956,-1.37968 -2.29945,-2.29946 -1.83956,-5.05879 0.45989,-2.75936 0,-2.75936 3.67912,-3.67914 3.67913,-0.91978 6.43847,-4.13901 6.43847,1.83958 0,5.97857 -4.13901,7.81813 -0.91978,7.81813 3.21924,0 9.65769,-0.4599 15.63628,-4.59891 5.97858,-4.13902 6.43847,-4.13902 8.27803,-3.67912 1.83956,0.4599 5.0588,-2.75934 8.73791,-5.05879 3.67914,-2.29946 4.13902,-1.37968 7.81815,-0.91978 3.67912,0.45988 2.29946,2.75934 -1.83956,5.05879 -4.13901,2.29946 -6.89837,-0.91978 -7.81815,5.51869 -0.91977,6.43846 1.37968,7.35824 -3.21923,8.73791 -4.5989,1.37968 -3.67912,-3.21923 -5.05879,1.83956 -1.37968,5.05881 0.91978,2.29946 -2.75934,10.11761 -3.67913,7.81813 0,10.11758 -7.35825,11.49726 -7.35825,1.37966 -7.81815,4.13901 -15.1764,0.91978 -7.35825,-3.21924 -9.19781,-4.13902 -11.49726,-2.75935 -2.29945,1.37967 -21.61486,7.35825 -25.29397,7.35825 -3.67914,0 -25.75389,0.91978 -28.97311,-1.37967 -3.21923,-2.29945 -7.81814,-5.05879 -11.49726,-8.73792 -3.67913,-3.67912 -5.05881,-13.33683 -5.05881,-13.33683 z"
       id="path8955"
       inkscape:connector-curvature="0" />
    <path
       style="color:#000000;fill:#e6e6e6;fill-opacity:1;fill-rule:nonzero;stroke:none;stroke-width:1;marker:none;visibility:visible;display:inline;overflow:visible;enable-background:accumulate"
       d="m 273.50377,919.62226 c 0,0 1.97076,-25.12731 -0.49271,-25.12731 -2.46345,0 -4.92692,-4.92692 -1.97076,-9.36114 2.95615,-4.43424 0.49268,-19.215 -1.97077,-19.7077 -2.46346,-0.49269 -3.44885,-1.97077 -2.95616,-4.92691 0.4927,-2.95616 -1.97076,-12.31732 -4.92692,-14.28808 -2.95615,-1.97077 -4.43422,-2.95615 -9.36115,-6.40499 -4.92692,-3.44885 -7.39038,-5.41963 -5.41961,-8.86847 1.97077,-3.44885 4.43422,-4.43423 0.49269,-8.86846 -3.94154,-4.43422 -3.44885,-5.41961 -2.46346,-10.83923 0.98538,-5.41961 -1.47808,-10.83922 -5.91231,-13.79538 -4.43422,-2.95616 -4.92693,-2.95616 -4.92693,-7.39038 0,-4.43423 -5.9123,-8.37577 -4.43422,-11.82461 1.47808,-3.44885 4.92693,-4.92693 4.92693,-6.89769 0,-1.97077 -1.97077,-7.88309 -5.91232,-12.31731 -3.94153,-4.43423 -5.41961,-0.98539 -3.44884,-6.89769 1.97076,-5.91231 0,-7.88308 -1.97077,-11.33193 -1.97077,-3.44884 0,-1.97076 -4.43422,-6.89769 -4.43424,-4.92692 1.47806,-2.95615 -1.47808,-11.82461 -2.95616,-8.86846 -11.82462,-11.82462 -13.79538,-15.27346 -1.97077,-3.44885 0.98537,-4.43422 2.95614,-9.36115 1.97078,-4.92692 -2.95614,-6.405 -3.94153,-13.30269 -0.98538,-6.89769 1.47808,-7.39038 2.46347,-13.79538 0.98537,-6.40499 5.9123,-8.86846 0.49268,-12.81 -5.41961,-3.94153 -12.3173,-11.82461 -10.34653,-18.7223 1.97077,-6.89769 3.44884,-7.88308 6.405,-7.88308 2.95614,0 4.43422,5.41962 4.43422,8.37577 0,2.95615 3.94154,1.47807 4.43424,4.92692 0.49269,3.44885 -4.43424,6.89769 -4.43424,6.89769 0,0 6.405,4.43424 7.39038,7.88308 0.98539,3.44885 -0.98538,9.85384 -1.97077,12.80999 -0.98537,2.95616 -3.44884,4.43424 0,8.37577 3.44885,3.94154 0,4.43424 0,7.88309 0,3.44884 -4.43422,2.95614 0,8.37575 4.43424,5.41963 8.37577,5.91232 4.92693,7.88308 -3.44885,1.97077 -4.92693,2.46346 1.47808,7.88308 6.405,5.41962 5.41961,3.94154 5.41961,10.83923 0,6.89769 0.49269,6.405 3.44884,9.36114 2.95616,2.95616 5.41962,11.33193 4.92693,14.78078 -0.49269,3.44884 -1.47808,-1.97077 2.95616,5.41961 4.43422,7.39038 2.46345,8.86846 3.44884,12.3173 0.98538,3.44885 6.40499,3.94154 7.39038,7.39038 0.98539,3.44885 -1.47808,5.91232 -2.95616,9.36116 -1.47807,3.44885 -4.43422,2.46346 -2.46345,7.88307 1.97077,5.41963 -0.49269,0.98539 4.43422,5.41963 4.92692,4.43422 2.95616,11.33191 4.92692,17.73691 1.97077,6.405 7.3904,3.44885 6.8977,8.86846 -0.49269,5.41961 -4.92693,4.43424 -3.44885,10.34654 1.47808,5.9123 4.92692,-2.46346 10.34654,5.9123 5.41961,8.37577 4.92692,6.405 5.91231,12.31731 0.98538,5.9123 8.37577,8.86846 7.39038,17.24423 -0.98539,8.37576 -0.98539,4.43422 0.98539,10.34654 1.97077,5.9123 0,7.39038 0.49269,10.83922 0.49269,3.44885 4.43422,-0.49269 5.41961,5.41961 0.98539,5.91231 4.92693,6.8977 1.97077,11.33193 -2.95616,4.43422 -0.49269,8.86846 -0.49269,8.86846 l 4.92692,17.73692 -11.82461,-2.95616 z"
       id="path8429"
       inkscape:connector-curvature="0" />
    <path
       style="color:#000000;fill:#b3b3b3;fill-opacity:1;fill-rule:nonzero;stroke:none;stroke-width:1;marker:none;visibility:visible;display:inline;overflow:visible;enable-background:accumulate"
       d="m 253.79607,918.63687 c 0,0 -9.85385,-10.34653 -16.75154,-11.33191 -6.89769,-0.98539 -21.67845,-3.44885 -24.63461,-3.44885 -2.95615,0 0,1.47808 4.92693,2.95615 4.92692,1.47808 21.67846,5.41962 21.67846,7.88308 0,2.46345 8.86846,7.39038 -6.405,1.47808 -15.27346,-5.91232 -16.75154,-4.92693 -21.67847,-4.92693 -4.92692,0 4.43424,1.97077 10.83924,4.43424 6.40499,2.46345 7.39038,4.92691 0.49269,3.94153 -6.89769,-0.98539 -22.66384,0 -12.3173,2.46346 10.34653,2.46347 23.15653,4.43423 25.61999,8.37577 2.46346,3.94154 12.31731,3.44884 12.31731,3.44884 0,0 4.43422,-6.405 9.36114,-5.41961 4.92693,0.98539 21.67847,1.97077 23.15655,3.94153 1.47806,1.97078 -1.47808,1.97078 5.9123,3.94155 7.39038,1.97077 30.05422,-4.43423 36.45922,-4.92692 6.405,-0.4927 22.66384,0.49269 24.63461,-2.95616 1.97078,-3.44885 9.85384,-7.88308 6.405,-2.46346 -3.44885,5.41962 -7.39038,5.41962 -1.97077,5.91231 5.41961,0.49268 11.33193,0.49268 11.82462,2.46346 0.49268,1.97077 -1.47808,3.44885 4.43422,2.95615 5.91231,-0.49269 18.7223,-4.92693 23.64923,-6.89769 4.92692,-1.97077 2.46347,0.49269 9.36116,-4.92693 6.89769,-5.41961 5.9123,2.46347 8.86846,-6.89769 2.95615,-9.36114 -2.46347,-0.98537 -9.85385,0.4927 -7.39038,1.47807 -12.80999,3.94154 -6.89769,-2.46347 5.91231,-6.405 18.22962,-19.70768 10.34653,-17.24422 -7.88306,2.46347 -11.33192,6.89769 -15.27346,8.37577 -3.94153,1.47808 -12.3173,6.405 -13.30269,7.88308 -0.98538,1.47806 -1.97077,6.40499 -1.97077,6.40499 l -2.95614,0.98539 c 0,0 11.33191,-17.24423 8.86846,-17.24423 -2.46347,0 -7.88308,2.95616 -10.83924,6.89769 -2.95614,3.94153 -4.92691,3.94153 -7.88307,7.39038 -2.95616,3.44885 0.98538,4.43424 -0.49269,-1.97077 -1.47808,-6.405 -1.47808,-4.43423 -4.92692,-1.47808 -3.44885,2.95616 -13.79538,7.88309 -13.79538,7.88309 0,0 4.92692,-4.43424 8.37577,-12.81001 3.44884,-8.37577 6.89769,-14.78076 1.47806,-11.33191 -5.41961,3.44884 -16.25884,12.80999 -16.25884,18.2296 0,5.41961 -3.44884,7.88308 -9.85384,8.37577 -6.40499,0.49269 -11.33192,2.46347 -13.79539,-0.98538 -2.46345,-3.44884 -4.92692,-1.47807 -7.88306,-11.82461 -2.95616,-10.34654 -9.36116,-9.85385 -7.3904,-3.94155 1.97078,5.91232 2.46347,12.81001 0.49271,14.78077 -1.97077,1.97077 -6.40501,-5.41961 -10.34654,-13.30269 -3.94155,-7.88307 -14.78077,-17.24423 -15.27346,-11.82461 -0.49269,5.41962 9.85385,17.24422 10.83922,20.69307 0.98539,3.44884 0.49269,3.44884 -2.95615,3.94155 -3.44885,0.49268 0,7.88306 -5.41962,-0.98539 -5.41961,-8.86846 -12.3173,-14.78076 -18.2296,-19.70769 -5.91232,-4.92692 -5.41961,-10.34653 -5.91232,-4.92692 -0.49268,5.41961 3.44885,6.89769 8.37577,11.82461 4.92693,4.92693 10.34654,6.40499 6.8977,8.37577 -3.44885,1.97077 -5.41962,6.40499 -10.34654,-0.4927 z"
       id="path8404"
       inkscape:connector-curvature="0" />
    <path
       style="color:#000000;fill:#e6e6e6;fill-opacity:1;fill-rule:nonzero;stroke:none;stroke-width:1;marker:none;visibility:visible;display:inline;overflow:visible;enable-background:accumulate"
       d="m -12.257723,740.77498 c -3.941534,0.49269 -16.258851,-0.98537 -19.214994,0 -2.956157,0.98539 -9.853848,0.98539 -8.37577,2.95616 1.478079,1.97077 0.492688,3.44885 5.419613,3.44885 4.926924,0 14.780772,-1.97077 14.780772,-1.97077 0,0 0,-1.47808 0.492688,1.47808 0.492688,2.95614 1.478079,5.41961 6.405003,2.46345 4.9269103,-2.95615 2.463455,-6.405 7.8830675,-1.97076 5.41961237,4.43422 4.9269241,0.98537 7.8830813,1.97076 2.9561435,0.98539 1.4780786,5.41962 5.4196124,7.39038 3.9415338,1.97077 9.8538478,-1.47808 14.2880698,-0.98537 4.434236,0.49268 4.434236,3.94153 9.36116,4.92692 4.926911,0.98538 4.434222,0 9.853835,0.49269 5.419612,0.49269 6.405003,3.94153 10.839238,2.95616 4.434222,-0.98539 6.404989,-4.43424 2.463455,-8.37577 -3.941534,-3.94155 -10.839224,-8.37577 -17.244227,-7.3904 -6.405003,0.98539 -11.331927,4.43424 -12.317303,-0.98537 -0.985391,-5.41962 0.985376,-9.85385 -3.448846,-9.36116 -4.434236,0.4927 -6.897691,3.44884 -9.36116,4.43423 -2.463455,0.98539 0.985391,5.9123 -5.4196121,0.98539 -6.404989,-4.92692 -3.4488455,-10.83924 -9.3611462,-8.86847 -5.9123144,1.97078 -3.4488455,-0.49269 -9.3611597,-1.47806 -5.912301,-0.98539 -6.404989,-0.49271 -4.926911,2.95614 1.478065,3.44885 3.941534,4.92692 3.941534,4.92692 z"
       id="path8427"
       inkscape:connector-curvature="0" />
    <path
       style="color:#000000;fill:#e6e6e6;fill-opacity:1;fill-rule:nonzero;stroke:none;stroke-width:1;marker:none;visibility:visible;display:inline;overflow:visible;enable-background:accumulate"
       d="m 550.39678,615.13847 c -4.43422,0.4927 -16.25884,5.41961 -15.27346,7.88308 0.98539,2.46345 -1.47806,1.97077 -3.94153,4.92692 -2.46346,2.95615 -9.85385,7.88307 -7.39038,9.85384 2.46345,1.97078 -2.95616,6.89769 -5.41961,7.88308 -2.46347,0.98539 -3.44885,8.86846 -3.44885,8.86846 0,0 -3.44885,-0.49269 -4.92692,3.94153 -1.47808,4.43424 -1.97077,11.82462 -3.94154,14.28808 -1.97078,2.46346 -12.81,1.47808 -5.91231,5.41962 6.89769,3.94153 -0.98538,10.83922 -2.95616,11.82461 -1.97077,0.98538 -10.34654,6.40499 -7.39038,7.39038 2.95616,0.98539 5.41961,1.47808 7.39038,-0.98539 1.97078,-2.46345 6.405,-11.8246 9.36116,-11.8246 2.95616,0 -0.49269,-1.97078 -1.97077,-4.92692 -1.47807,-2.95616 -1.97076,-2.95616 2.46346,-4.43424 4.43423,-1.47808 12.81,-3.44885 13.30269,-9.85385 0.49269,-6.40499 3.44885,-8.37575 6.40501,-9.85383 2.95614,-1.47808 2.46345,-4.43424 2.46345,-7.88308 0,-3.44885 2.95616,-11.33192 5.9123,-12.31731 2.95616,-0.98539 7.88308,-4.43423 11.33193,-4.92692 3.44884,-0.49269 0.98539,-3.44885 -0.98539,-2.95616 -1.97077,0.4927 0.4927,0.98539 0.98539,-1.97077 0.49269,-2.95614 -0.49269,-4.92692 1.47808,-7.88306 1.97076,-2.95616 2.46345,-2.46347 2.46345,-2.46347 z"
       id="path8452"
       inkscape:connector-curvature="0" />
    <path
       style="color:#000000;fill:#e6e6e6;fill-opacity:1;fill-rule:nonzero;stroke:none;stroke-width:1;marker:none;visibility:visible;display:inline;overflow:visible;enable-background:accumulate"
       d="m 456.29258,820.09843 c 3.44884,-1.97077 8.86845,-7.88307 12.80999,-13.79538 3.94153,-5.9123 16.25885,-2.95616 18.22962,-6.89769 1.97076,-3.94154 3.94153,-8.37577 6.40499,-10.83923 2.46346,-2.46347 7.39039,-9.36116 11.82461,-11.33192 4.43424,-1.97077 2.95616,1.47807 6.89769,-7.88307 3.94155,-9.36116 6.89769,-9.85385 6.89769,-9.85385 0,0 9.85385,-2.95616 10.34654,-7.39038 0.4927,-4.43423 7.39039,-1.97077 7.39039,-1.97077 0,0 4.43422,0 6.89769,-1.97078 2.46346,-1.97076 16.75153,-11.8246 16.75153,-11.8246 l 5.41961,3.44885 c 0,0 7.88308,-0.4927 10.83924,-3.44885 2.95614,-2.95615 19.21499,-5.41962 21.18576,-7.39039 1.97077,-1.97077 6.405,-2.95614 13.30269,-4.43422 6.8977,-1.47808 7.39038,-1.97077 14.28807,-4.92693 6.8977,-2.95615 3.94154,-3.94153 10.83923,0.49269 6.89769,4.43424 12.81,7.88308 6.405,8.37577 -6.405,0.49269 -4.92692,-0.98539 -8.37577,-3.44884 -3.44884,-2.46346 -1.47808,-5.41962 -7.39038,-0.98539 -5.91231,4.43423 -12.81,7.39039 -12.81,7.39039 0,0 -4.92691,-3.94155 -6.89769,-3.44885 -1.97077,0.49269 -2.46346,2.95615 -7.39038,6.89769 -4.92693,3.94154 -6.89769,3.44885 -9.85385,1.97077 -2.95614,-1.47808 -2.46346,-3.44884 -5.9123,-0.49269 -3.44885,2.95615 -10.83923,1.97077 -13.3027,6.40499 -2.46345,4.43424 -5.9123,8.86846 -8.37576,8.86846 -2.46346,0 -6.40499,0 -10.34654,0.98539 -3.94153,0.98539 -8.37576,0.98539 -7.39038,4.43424 0.98539,3.44884 0,10.34653 -3.44885,10.34653 -3.44884,0 -5.9123,-5.41962 -9.36114,-3.44884 -3.44885,1.97076 -6.405,6.40499 -6.405,6.40499 0,0 -2.95616,5.41961 -7.88309,5.91231 -4.92691,0.49269 -5.9123,2.95614 -5.9123,5.41961 0,2.46346 -6.405,5.41961 -6.405,7.39038 0,1.97077 1.47808,3.94154 1.47808,7.39038 0,3.44885 -0.49269,6.405 -5.41961,6.89769 -4.92693,0.4927 -9.36115,5.41963 -13.79539,5.91232 -4.43423,0.49268 -4.43423,0 -8.37576,0.49268 -3.94154,0.49269 -4.92693,-1.47807 -7.39038,3.94154 -2.46347,5.41962 1.47807,5.41962 -3.44885,5.41962 -4.92692,0 -3.94153,-4.92692 -5.91231,0.49269 -1.97077,5.41961 -3.94154,4.92693 -7.39038,4.92693 -3.44885,0 0.98539,-4.43424 0.98539,-4.43424 z"
       id="path8454"
       inkscape:connector-curvature="0" />
    <path
       style="color:#000000;fill:#e6e6e6;fill-opacity:1;fill-rule:nonzero;stroke:none;stroke-width:1;marker:none;visibility:visible;display:inline;overflow:visible;enable-background:accumulate"
       d="m 393.22797,869.86035 c 0,0 -8.86846,5.9123 -10.34654,8.37577 -1.47808,2.46345 -2.46345,5.9123 -3.94153,9.36114 -1.47808,3.44885 -2.46347,7.88308 -6.40501,8.86846 -3.94153,0.98539 -5.41961,2.46347 -3.94153,4.43424 1.47808,1.97076 1.47808,4.92692 0,7.88308 -1.47808,2.95614 -1.97077,3.94153 0,5.41961 1.97077,1.47808 0.98538,3.44885 4.43422,1.97077 3.44885,-1.47808 6.89769,-11.33193 6.40501,-14.28807 -0.49269,-2.95616 -2.46346,-3.94155 2.46345,-6.40501 4.92692,-2.46347 8.86847,-4.43423 7.88308,-8.86845 -0.98539,-4.43424 -1.47808,-2.95616 1.97077,-6.40501 3.44884,-3.44884 0.98539,-2.95615 3.94155,-7.88308 2.95614,-4.92691 -2.46347,-2.46345 -2.46347,-2.46345 z"
       id="path8522"
       inkscape:connector-curvature="0" />
  </g>
</svg>
